<?xml version="1.0" encoding="UTF-8"?>
<svg version="1.1" xmlns="http://www.w3.org/2000/svg" width="512" height="512">
<path d="M0 0 C168.96 0 337.92 0 512 0 C512 168.96 512 337.92 512 512 C343.04 512 174.08 512 0 512 C0 343.04 0 174.08 0 0 Z " fill="#FDFDFD" transform="translate(0,0)"/>
<path d="M0 0 C3.66755944 1.40102934 6.22803451 3.78023708 9.0859375 6.38671875 C10.32856586 7.48682343 11.57341905 8.58441938 12.8203125 9.6796875 C13.45388672 10.2370459 14.08746094 10.7944043 14.74023438 11.36865234 C17.69466101 13.91257395 20.75539957 16.31076904 23.8359375 18.69921875 C28.84457147 22.59428732 33.7914711 26.5501666 38.69140625 30.58203125 C42.22882269 33.48860064 45.78150182 36.3760069 49.3359375 39.26171875 C50.01148682 39.81037598 50.68703613 40.3590332 51.38305664 40.92431641 C53.471376 42.62029083 55.55987932 44.31603844 57.6484375 46.01171875 C74.05123002 59.32898829 74.05123002 59.32898829 82.078125 65.90625 C83.83192178 67.34287076 85.58719504 68.77769048 87.34375 70.2109375 C94.1498468 75.7663413 100.90799379 81.37703719 107.6484375 87.01171875 C110.41499168 85.72063494 112.69805817 84.30523835 115.046875 82.359375 C115.68359131 81.83609619 116.32030762 81.31281738 116.97631836 80.77368164 C117.65186768 80.21285889 118.32741699 79.65203613 119.0234375 79.07421875 C120.46925894 77.8857532 121.91588728 76.69826866 123.36328125 75.51171875 C124.08628418 74.91875 124.80928711 74.32578125 125.55419922 73.71484375 C128.53252843 71.29273783 131.55582746 68.930971 134.5859375 66.57421875 C142.09311701 60.71799124 149.42116458 54.64865287 156.75488281 48.57763672 C165.63526212 41.23380577 174.5953534 33.98654187 183.54150391 26.72314453 C185.65480016 25.00655047 187.76701519 23.28863496 189.87890625 21.5703125 C197.11127696 15.6868229 204.35631972 9.82115085 211.6484375 4.01171875 C212.93041016 2.92310547 212.93041016 2.92310547 214.23828125 1.8125 C216.6484375 0.01171875 216.6484375 0.01171875 219.5234375 -0.23828125 C225.33423774 2.08603884 228.52719377 6.72440631 231.22401428 12.2258606 C233.54382129 18.62005481 233.07525898 25.37038884 233.05249023 32.08154297 C233.05819974 33.60342915 233.06516624 35.12531106 233.07328796 36.64718628 C233.09117174 40.7630174 233.09005989 44.87863476 233.08434558 48.99449301 C233.08124638 52.43863227 233.08735439 55.8827309 233.09338433 59.32686436 C233.10741263 67.45671375 233.10588278 75.58645802 233.09448242 83.71630859 C233.08300636 92.08472202 233.09707205 100.45281477 233.1238789 108.82118595 C233.1460799 116.02316531 233.15266328 123.22504434 233.14680248 130.42705548 C233.14344178 134.72090724 233.14578852 139.01455355 233.16305351 143.30837631 C233.17859068 147.34853575 233.17449277 151.38822257 233.15574837 155.4283638 C233.15208093 156.9044969 233.15511671 158.38066556 233.16563416 159.85676575 C233.22563152 168.9792154 233.06555871 177.71530673 226.97217464 185.02166557 C216.52095044 195.02408635 204.60710761 194.59163404 191.03710938 194.52929688 C189.05187976 194.53472331 187.06665418 194.5418489 185.08143616 194.55053711 C179.71159223 194.56871121 174.34205707 194.56172733 168.97220802 194.54902077 C163.34079814 194.53886244 157.7094139 194.5482943 152.07800293 194.55456543 C142.62275468 194.56183358 133.16763158 194.55227593 123.71240234 194.53320312 C112.7957511 194.51143606 101.87939873 194.51848802 90.96275473 194.54050875 C81.57391354 194.55868642 72.1851621 194.56120948 62.79630899 194.55075407 C57.19577546 194.54453218 51.5953822 194.54364762 45.99485779 194.55690002 C40.72845472 194.56849232 35.46243534 194.56037098 30.19607353 194.537323 C28.26842827 194.53205396 26.34075048 194.5335186 24.41311836 194.54237366 C12.18357216 194.59335467 1.57539295 194.46754988 -7.8828125 185.65625 C-13.01922184 179.90511081 -14.47029887 174.21912605 -14.49873352 166.67562866 C-14.50588882 165.37197357 -14.51304413 164.06831848 -14.52041626 162.72515869 C-14.52325638 161.28210473 -14.52596812 159.83905051 -14.52856445 158.39599609 C-14.53483175 156.87470343 -14.54147879 155.35341228 -14.54847717 153.8321228 C-14.56949191 148.83731141 -14.57987855 143.8424998 -14.58984375 138.84765625 C-14.59389256 137.12550465 -14.59800952 135.40335321 -14.60219383 133.68120193 C-14.62124144 125.58779647 -14.63547222 117.4944001 -14.6438058 109.40097654 C-14.65357078 100.07242585 -14.6798727 90.74411291 -14.72030669 81.41564596 C-14.75051782 74.1967831 -14.76527949 66.97798819 -14.76858681 59.75906336 C-14.77093199 55.45170893 -14.77982255 51.1446086 -14.80504799 46.83732224 C-14.82842082 42.78084066 -14.83252526 38.72477883 -14.82228661 34.66824722 C-14.82179333 33.18565215 -14.82805191 31.70303577 -14.84184265 30.22050476 C-14.92532012 20.70840866 -14.40056563 12.25207866 -8.38671875 4.46875 C-7.73574219 3.92605469 -7.08476562 3.38335937 -6.4140625 2.82421875 C-5.76566406 2.25316406 -5.11726562 1.68210938 -4.44921875 1.09375 C-2.3515625 0.01171875 -2.3515625 0.01171875 0 0 Z " fill="#EEEEEE" transform="translate(146.3515625,160.98828125)"/>
<path d="M0 0 C3.66755944 1.40102934 6.22803451 3.78023708 9.0859375 6.38671875 C10.32856586 7.48682343 11.57341905 8.58441938 12.8203125 9.6796875 C13.45388672 10.2370459 14.08746094 10.7944043 14.74023438 11.36865234 C17.69466101 13.91257395 20.75539957 16.31076904 23.8359375 18.69921875 C28.84457147 22.59428732 33.7914711 26.5501666 38.69140625 30.58203125 C42.22882269 33.48860064 45.78150182 36.3760069 49.3359375 39.26171875 C50.01148682 39.81037598 50.68703613 40.3590332 51.38305664 40.92431641 C53.471376 42.62029083 55.55987932 44.31603844 57.6484375 46.01171875 C74.05123002 59.32898829 74.05123002 59.32898829 82.078125 65.90625 C83.83192178 67.34287076 85.58719504 68.77769048 87.34375 70.2109375 C94.1498468 75.7663413 100.90799379 81.37703719 107.6484375 87.01171875 C110.41499168 85.72063494 112.69805817 84.30523835 115.046875 82.359375 C115.68359131 81.83609619 116.32030762 81.31281738 116.97631836 80.77368164 C117.65186768 80.21285889 118.32741699 79.65203613 119.0234375 79.07421875 C120.46925894 77.8857532 121.91588728 76.69826866 123.36328125 75.51171875 C124.08628418 74.91875 124.80928711 74.32578125 125.55419922 73.71484375 C128.53252843 71.29273783 131.55582746 68.930971 134.5859375 66.57421875 C142.09311701 60.71799124 149.42116458 54.64865287 156.75488281 48.57763672 C165.63526212 41.23380577 174.5953534 33.98654187 183.54150391 26.72314453 C185.65480016 25.00655047 187.76701519 23.28863496 189.87890625 21.5703125 C197.11127696 15.6868229 204.35631972 9.82115085 211.6484375 4.01171875 C212.93041016 2.92310547 212.93041016 2.92310547 214.23828125 1.8125 C216.6484375 0.01171875 216.6484375 0.01171875 219.5234375 -0.23828125 C225.43334994 2.12568372 228.67665272 6.84624313 231.22798157 12.53149414 C233.01352967 17.436573 233.04995492 22.01780151 232.98901367 27.19140625 C232.98945175 28.17768509 232.98988983 29.16396393 232.99034119 30.18013 C232.98826364 33.41586622 232.96498121 36.65107388 232.94140625 39.88671875 C232.93580663 42.13972694 232.93153826 44.3927388 232.92854309 46.64575195 C232.91712323 52.5575378 232.88768052 58.46910034 232.85443115 64.38079834 C232.82366866 70.4205015 232.81002455 76.46024097 232.79492188 82.5 C232.76280818 94.33733736 232.71164636 106.17450944 232.6484375 118.01171875 C229.86548128 116.65806474 227.56133062 115.27119771 225.1796875 113.2890625 C224.52484375 112.74958984 223.87 112.21011719 223.1953125 111.65429688 C222.51984375 111.09162109 221.844375 110.52894531 221.1484375 109.94921875 C219.82762797 108.85162603 218.5046477 107.75664112 217.1796875 106.6640625 C216.48327148 106.07149658 215.78685547 105.47893066 215.06933594 104.8684082 C212.6105281 102.89342311 212.6105281 102.89342311 209.48535156 101.22338867 C201.45137527 96.37593681 201.45137527 96.37593681 199.99072266 92.07510376 C198.9847048 86.56223526 199.21459293 81.02493079 199.3984375 75.44921875 C199.41042969 73.75588932 199.41698794 72.06251223 199.41796875 70.36914062 C199.43208368 66.2467836 199.51990641 62.13203087 199.6484375 58.01171875 C198.95451904 58.5850293 198.95451904 58.5850293 198.24658203 59.16992188 C182.64035691 72.05814356 182.64035691 72.05814356 175.28515625 77.90234375 C171.80436785 80.68697447 168.35315984 83.50736019 164.8984375 86.32421875 C159.81759228 90.46659426 154.69971724 94.55188672 149.5234375 98.57421875 C144.71195755 102.31488645 140.05911446 106.19976602 135.4609375 110.19921875 C117.75029686 125.57463469 117.75029686 125.57463469 105.76171875 125.40234375 C100.58106381 124.75232431 97.55986817 122.32237412 93.6484375 119.01171875 C92.67390625 118.19960938 91.699375 117.3875 90.6953125 116.55078125 C88.48511652 114.69511142 86.29287107 112.81994769 84.10546875 110.9375 C80.69804935 108.02528319 77.18971883 105.2585102 73.6484375 102.51171875 C69.05724387 98.94487538 64.5643352 95.29341838 60.1484375 91.51171875 C55.25913905 87.32712408 50.26295795 83.31425996 45.18212891 79.36523438 C39.47716982 74.91520804 33.90067405 70.31416259 28.33300781 65.6940918 C27.65077148 65.12859619 26.96853516 64.56310059 26.265625 63.98046875 C25.66347168 63.47966797 25.06131836 62.97886719 24.44091797 62.46289062 C22.54559065 60.92845511 20.60761285 59.4634391 18.6484375 58.01171875 C18.70717041 58.99865723 18.76590332 59.9855957 18.82641602 61.00244141 C20.383009 90.93313967 20.383009 90.93313967 14.18359375 98.13671875 C10.71058316 101.21649825 6.8788018 103.58015486 2.80419922 105.78417969 C-0.37568815 107.59487886 -2.91368198 109.85093746 -5.6640625 112.26171875 C-8.48246442 114.61554893 -11.0518209 116.42521302 -14.3515625 118.01171875 C-14.44442187 105.01572299 -14.51540855 92.01980673 -14.55881119 79.02354622 C-14.57964689 72.98823414 -14.60789147 66.95314979 -14.65332031 60.91796875 C-14.69692081 55.08891449 -14.7207298 49.26007868 -14.73107147 43.43087387 C-14.73843733 41.2118168 -14.75282097 38.99277109 -14.77448273 36.77380753 C-14.80370503 33.65509867 -14.80751059 30.53728172 -14.80566406 27.41845703 C-14.82004517 26.5099852 -14.83442627 25.60151337 -14.84924316 24.66551208 C-14.80167242 17.19442206 -13.00835884 10.45023648 -8.38671875 4.46875 C-7.73574219 3.92605469 -7.08476562 3.38335937 -6.4140625 2.82421875 C-5.76566406 2.25316406 -5.11726562 1.68210938 -4.44921875 1.09375 C-2.3515625 0.01171875 -2.3515625 0.01171875 0 0 Z " fill="#C74233" transform="translate(146.3515625,160.98828125)"/>
<path d="M0 0 C3.44917069 2.25743878 6.78689282 4.53141923 9.953125 7.171875 C10.99799072 8.03872925 10.99799072 8.03872925 12.06396484 8.9230957 C12.78535645 9.52597412 13.50674805 10.12885254 14.25 10.75 C15.76779555 12.00963725 17.28602222 13.26875521 18.8046875 14.52734375 C19.53010742 15.1291748 20.25552734 15.73100586 21.00292969 16.35107422 C24.20503263 18.99496215 27.45322782 21.57941273 30.703125 24.1640625 C34.12086527 26.89592973 37.4996909 29.67467568 40.8828125 32.44921875 C45.27209488 36.04555208 49.68039509 39.61854268 54.08740234 43.19311523 C57.99034296 46.36048381 61.87572686 49.54756613 65.75 52.75 C79.56027804 64.65726147 79.56027804 64.65726147 97 67 C103.25654449 65.36977362 107.5697992 60.8605133 112.17578125 56.55078125 C115.27937089 53.74767747 118.50527807 51.18049809 121.8125 48.625 C126.46880472 45.01834967 131.02816875 41.3330957 135.5 37.5 C140.39266347 33.31210512 145.39312788 29.29708257 150.47729492 25.34472656 C155.32531323 21.56267004 160.0760657 17.67057675 164.8125 13.75 C181.4379894 0 181.4379894 0 183 0 C183 12.21 183 24.42 183 37 C184.32 37.66 185.64 38.32 187 39 C188.44493867 40.06690239 189.85867092 41.17657224 191.25 42.3125 C192.11109375 43.01117188 192.9721875 43.70984375 193.859375 44.4296875 C194.90652051 45.2861277 195.9533644 46.14293673 197 47 C199.10545534 48.72086433 201.21169425 50.44074939 203.31933594 52.15893555 C204.76178654 53.33540808 206.20257164 54.51392591 207.64160156 55.69458008 C208.30643555 56.23751709 208.97126953 56.7804541 209.65625 57.33984375 C210.25244141 57.82831787 210.84863281 58.31679199 211.46289062 58.82006836 C213.00675667 60.08249573 213.00675667 60.08249573 215 61 C215.10189485 68.6496231 215.17167286 76.29906945 215.21972656 83.94921875 C215.2397713 86.54856914 215.26701447 89.14787483 215.30175781 91.74707031 C215.35058865 95.4955553 215.37304126 99.24344111 215.390625 102.9921875 C215.41127014 104.14363251 215.43191528 105.29507751 215.45318604 106.48141479 C215.45527855 114.10269262 214.77001247 121.91132854 209.36480713 127.77340698 C208.91442078 128.17818268 208.46403442 128.58295837 208 129 C205.10537474 127.66088647 202.76900521 126.13966502 200.3203125 124.1015625 C199.63839844 123.53953125 198.95648438 122.9775 198.25390625 122.3984375 C197.20009766 121.52058594 197.20009766 121.52058594 196.125 120.625 C194.73391308 119.46877191 193.34071801 118.31507496 191.9453125 117.1640625 C191.33187988 116.65311035 190.71844727 116.1421582 190.08642578 115.61572266 C187.94452204 113.84227495 187.94452204 113.84227495 184.91790771 112.50686646 C181.76239777 109.79586844 181.56743026 109.54259624 181.24050903 105.68463135 C181.20538451 103.88156209 181.20335572 102.07766973 181.22705078 100.27441406 C181.21642105 99.28871933 181.20579132 98.3030246 181.19483948 97.28746033 C181.16673634 94.02966593 181.180862 90.7734857 181.1953125 87.515625 C181.18406551 85.25688254 181.17018626 82.99815178 181.15377808 80.73944092 C181.11767595 74.79467713 181.11737479 68.85042694 181.12445068 62.90557861 C181.12536225 56.83930214 181.09252413 50.77321954 181.0625 44.70703125 C181.00857737 32.80463373 180.99246327 20.90250613 181 9 C179.70959318 10.09431929 178.42407378 11.19440338 177.140625 12.296875 C176.42422852 12.90885742 175.70783203 13.52083984 174.96972656 14.15136719 C172.48518433 16.48316612 170.82289105 19.13545692 169 22 C165.6 25 165.6 25 163 25 C161.32476605 26.32255312 159.65893182 27.65705519 158 29 C155.26466879 30.60901836 154.24114485 31 151 31 C148.99915022 32.32320106 148.99915022 32.32320106 147 34 C146.34 34.47179687 145.68 34.94359375 145 35.4296875 C141.00370046 38.31763834 138.05531131 41.10184419 135 45 C133.34051852 46.01187895 131.67419438 47.0126546 130 48 C128.3916876 49.86655232 128.3916876 49.86655232 127 52 C126.278125 52.804375 125.55625 53.60875 124.8125 54.4375 C122.79282505 57.29290252 122.61014791 58.58879422 123 62 C121.02 61.01 119.04 60.02 117 59 C115.89591797 60.06541016 115.89591797 60.06541016 114.76953125 61.15234375 C113.78433683 62.08124135 112.79863267 63.00959853 111.8125 63.9375 C111.32974609 64.40607422 110.84699219 64.87464844 110.34960938 65.35742188 C107.31156256 68.19157293 105.15350781 69.61594277 101 70 C96.61782573 70.82906 92.32131648 71.90136022 88 73 C87.67 72.34 87.34 71.68 87 71 C85.41794801 70.34009125 83.80840497 69.74520523 82.1875 69.1875 C77.71499718 67.48972273 75.86783289 65.85674079 73 62 C69.90699306 59.57917808 69.90699306 59.57917808 66 59 C62.50838555 60.29132022 59.85908054 62.66185363 57 65 C55.7868648 65.97316317 54.57328893 66.94577714 53.359375 67.91796875 C50.59779 70.14215507 47.85175784 72.3841573 45.11328125 74.63671875 C41.44948563 77.64477094 37.73880386 80.5860113 34 83.5 C28.1516738 88.06485478 22.38719355 92.7269127 16.64233398 97.42114258 C12.32558637 100.94305033 7.96249743 104.38864045 3.50390625 107.73046875 C1.86191636 108.9470087 1.86191636 108.9470087 1 111 C-0.68189167 111.95063442 -2.3651646 112.89895401 -4.05712891 113.83154297 C-7.2231503 115.73561163 -9.91966446 118.12956271 -12.6875 120.5625 C-19.48486842 126.45986842 -19.48486842 126.45986842 -23 129 C-26.97697791 127.72168567 -28.25108607 125.31875268 -30.16796875 121.8515625 C-34.02165459 113.27575456 -32.78932193 102.15277052 -33.00927734 92.96875 C-33.08592277 90.42295759 -33.19488937 87.87791661 -33.33740234 85.33496094 C-34.46350581 64.79761546 -34.46350581 64.79761546 -30.3760376 58.49658203 C-26.48772709 54.26938477 -22.0186697 51.18712079 -17.09182739 48.28442383 C-14.00084184 46.38649692 -11.37092444 44.11578598 -8.625 41.75 C-6.12334126 39.68981045 -3.69922144 37.79948096 -1 36 C-0.66222851 33.24099243 -0.51102021 30.69516743 -0.48828125 27.9296875 C-0.47033005 27.13345978 -0.45237885 26.33723206 -0.43388367 25.51687622 C-0.37963031 22.9696383 -0.34583788 20.42258929 -0.3125 17.875 C-0.27934007 16.1497132 -0.24485166 14.42445139 -0.20898438 12.69921875 C-0.12389565 8.46628187 -0.05715693 4.23340247 0 0 Z " fill="#EEEEEE" transform="translate(164,218)"/>
<path d="M0 0 C0.20901519 9.50990161 0.36868446 19.01900665 0.46630955 28.53070831 C0.51317869 32.94805828 0.57668755 37.36383117 0.67895508 41.78027344 C0.77712789 46.046843 0.83063487 50.31190129 0.85389519 54.57951355 C0.87045838 56.2031381 0.9028061 57.82668465 0.95157051 59.44966125 C1.31755203 72.14112086 1.31755203 72.14112086 -1.92494202 76.71582031 C-4.18692082 78.7518112 -6.43006584 80.37940719 -9 82 C-10.32510914 83.04836441 -11.64111079 84.10851257 -12.94140625 85.1875 C-14.1460703 86.12803985 -15.35305871 87.06561119 -16.5625 88 C-17.50319336 88.73283203 -17.50319336 88.73283203 -18.46289062 89.48046875 C-19.97313327 90.65638287 -21.48624232 91.82861426 -23 93 C-26.1052316 91.68499626 -27.59510767 90.60179873 -29.1875 87.625 C-29.51105469 87.03976562 -29.83460938 86.45453125 -30.16796875 85.8515625 C-34.02165459 77.27575456 -32.78932193 66.15277052 -33.00927734 56.96875 C-33.08592277 54.42295759 -33.19488937 51.87791661 -33.33740234 49.33496094 C-34.46350581 28.79761546 -34.46350581 28.79761546 -30.3760376 22.49658203 C-26.48772709 18.26938477 -22.0186697 15.18712079 -17.09182739 12.28442383 C-14.00084184 10.38649692 -11.37092444 8.11578598 -8.625 5.75 C-1.64285714 0 -1.64285714 0 0 0 Z " fill="#4073DC" transform="translate(164,254)"/>
<path d="M0 0 C3.09182687 1.49637009 5.58342076 3.1354152 8.25 5.3125 C9.11109375 6.01117188 9.9721875 6.70984375 10.859375 7.4296875 C11.90652051 8.2861277 12.9533644 9.14293673 14 10 C16.10545534 11.72086433 18.21169425 13.44074939 20.31933594 15.15893555 C21.76178654 16.33540808 23.20257164 17.51392591 24.64160156 18.69458008 C25.30643555 19.23751709 25.97126953 19.7804541 26.65625 20.33984375 C27.25244141 20.82831787 27.84863281 21.31679199 28.46289062 21.82006836 C30.00675667 23.08249573 30.00675667 23.08249573 32 24 C32.10189485 31.6496231 32.17167286 39.29906945 32.21972656 46.94921875 C32.2397713 49.54856914 32.26701447 52.14787483 32.30175781 54.74707031 C32.35058865 58.4955553 32.37304126 62.24344111 32.390625 65.9921875 C32.41127014 67.14363251 32.43191528 68.29507751 32.45318604 69.48141479 C32.45527855 77.10269262 31.77001247 84.91132854 26.36480713 90.77340698 C25.6892276 91.38057053 25.6892276 91.38057053 25 92 C22.10240975 90.65784868 19.74740787 89.12982822 17.28515625 87.1015625 C16.59873047 86.53953125 15.91230469 85.9775 15.20507812 85.3984375 C14.49802734 84.81320312 13.79097656 84.22796875 13.0625 83.625 C11.65764456 82.47124155 10.25269873 81.31759316 8.84765625 80.1640625 C8.22898682 79.65311035 7.61031738 79.1421582 6.97290039 78.61572266 C4.96212571 76.90455579 4.96212571 76.90455579 2.41217041 75.34622192 C0 73 0 73 -0.60127258 69.74761963 C-0.59016953 68.45966492 -0.57906647 67.17171021 -0.56762695 65.84472656 C-0.56835709 65.13213181 -0.56908722 64.41953705 -0.56983948 63.68534851 C-0.56636345 61.33632557 -0.52750664 58.98930025 -0.48828125 56.640625 C-0.47895305 55.00967492 -0.47183697 53.37871081 -0.46684265 51.7477417 C-0.44777302 47.45987101 -0.39867346 43.17285032 -0.34332275 38.88531494 C-0.29212895 34.50829568 -0.26932839 30.13113875 -0.24414062 25.75390625 C-0.19055384 17.16888123 -0.10524255 8.58454642 0 0 Z " fill="#3F71D9" transform="translate(347,255)"/>
<path d="M0 0 C0.33 0 0.66 0 1 0 C1 21.12 1 42.24 1 64 C-2.01707565 62.49146217 -3.9664576 61.35988997 -6.46875 59.27734375 C-7.11714844 58.74383301 -7.76554687 58.21032227 -8.43359375 57.66064453 C-9.83373494 56.49308823 -11.23212129 55.32342487 -12.62890625 54.15185547 C-15.8897502 51.44212966 -19.08137283 48.85650995 -22.71875 46.66796875 C-27.3463247 43.7867526 -30.3329032 41.76418973 -32.296875 36.5703125 C-32.80115413 32.31871779 -32.82410903 28.88449123 -31 25 C-27.25448265 20.25724847 -22.17577189 16.92916613 -17.22900391 13.55078125 C-13.71596116 11.10665776 -10.40273132 8.42253694 -7.0625 5.75 C-5.90855622 4.84767271 -4.75369917 3.94651134 -3.59765625 3.046875 C-1.73726445 1.5927332 -1.73726445 1.5927332 0 0 Z " fill="#EBAA06" transform="translate(378,215)"/>
<path d="M0 0 C10.00840336 6.67226891 10.00840336 6.67226891 13.75 10.25 C16.54395443 12.89852778 19.28112817 15.24744881 22.5234375 17.30859375 C27.20660041 20.3392458 31.1129288 22.96997167 33.421875 28.25390625 C33.98512021 32.59963439 33.71122898 34.94070492 32 39 C27.8205753 43.98868574 22.44971087 47.69598393 17.171875 51.43408203 C14.21303941 53.56739717 11.4677147 55.88908399 8.6875 58.25 C5.75763705 60.69691851 3.46355176 62.26822412 0 64 C0 42.88 0 21.76 0 0 Z " fill="#EFAC04" transform="translate(132,215)"/>
<path d="M0 0 C0 36.3 0 72.6 0 110 C-0.33 110 -0.66 110 -1 110 C-1.33 76.67 -1.66 43.34 -2 9 C-9.0398573 15.12220136 -9.0398573 15.12220136 -14 22 C-17.4 25 -17.4 25 -20 25 C-21.67523395 26.32255312 -23.34106818 27.65705519 -25 29 C-27.73533121 30.60901836 -28.75885515 31 -32 31 C-34.00084978 32.32320106 -34.00084978 32.32320106 -36 34 C-36.66 34.47179687 -37.32 34.94359375 -38 35.4296875 C-41.99629954 38.31763834 -44.94468869 41.10184419 -48 45 C-49.65948148 46.01187895 -51.32580562 47.0126546 -53 48 C-54.6083124 49.86655232 -54.6083124 49.86655232 -56 52 C-56.721875 52.804375 -57.44375 53.60875 -58.1875 54.4375 C-60.20717495 57.29290252 -60.38985209 58.58879422 -60 62 C-61.98 61.01 -63.96 60.02 -66 59 C-67.10408203 60.06541016 -67.10408203 60.06541016 -68.23046875 61.15234375 C-69.21566317 62.08124135 -70.20136733 63.00959853 -71.1875 63.9375 C-71.67025391 64.40607422 -72.15300781 64.87464844 -72.65039062 65.35742188 C-75.68843744 68.19157293 -77.84649219 69.61594277 -82 70 C-86.38217427 70.82906 -90.67868352 71.90136022 -95 73 C-95.33 72.34 -95.66 71.68 -96 71 C-97.58205199 70.34009125 -99.19159503 69.74520523 -100.8125 69.1875 C-105.28500282 67.48972273 -107.13216711 65.85674079 -110 62 C-113.33237642 59.86900061 -113.33237642 59.86900061 -117 59 C-119.80167287 60.26333273 -119.80167287 60.26333273 -122 62 C-122.99 61.505 -122.99 61.505 -124 61 C-123.01 59.35 -122.02 57.7 -121 56 C-121.495 55.21625 -121.99 54.4325 -122.5 53.625 C-124 51 -124 51 -124 49 C-124.721875 48.95875 -125.44375 48.9175 -126.1875 48.875 C-130.10116476 47.65741541 -131.4452687 45.12954584 -134 42 C-134.825 41.67 -135.65 41.34 -136.5 41 C-139 40 -139 40 -141.4375 37 C-144.27713626 33.67554779 -145.90036064 33.15859373 -150 32 C-151.0194119 31.01979625 -152.02246356 30.02196992 -153 29 C-153.639375 28.87625 -154.27875 28.7525 -154.9375 28.625 C-158.91527192 27.41961457 -160.79163781 23.31254329 -163 20 C-163.99 19.67 -164.98 19.34 -166 19 C-166.33 18.34 -166.66 17.68 -167 17 C-169.52733235 16.34444881 -169.52733235 16.34444881 -172 16 C-172 15.34 -172 14.68 -172 14 C-172.66 13.67 -173.32 13.34 -174 13 C-174.625 9.9375 -174.625 9.9375 -175 7 C-172.23344582 8.29108381 -169.95037933 9.7064804 -167.6015625 11.65234375 C-166.96452393 12.17586426 -166.32748535 12.69938477 -165.67114258 13.23876953 C-164.99591553 13.79935059 -164.32068848 14.35993164 -163.625 14.9375 C-162.18441188 16.12208939 -160.74299067 17.3056663 -159.30078125 18.48828125 C-158.57842285 19.0807666 -157.85606445 19.67325195 -157.11181641 20.28369141 C-154.04623463 22.7751411 -150.93178302 25.20139395 -147.8125 27.625 C-142.72964384 31.58509952 -137.79012907 35.68310868 -132.89599609 39.87329102 C-128.4221276 43.68604678 -123.82442452 47.32081716 -119.18212891 50.92553711 C-114.18101208 54.82051632 -109.33825387 58.88163196 -104.5234375 63.00390625 C-98.60111953 67.68858811 -93.40755192 67.736927 -86 67 C-79.74127233 65.35238441 -75.43732925 60.86718326 -70.82421875 56.55078125 C-67.72062911 53.74767747 -64.49472193 51.18049809 -61.1875 48.625 C-56.53119528 45.01834967 -51.97183125 41.3330957 -47.5 37.5 C-42.60733653 33.31210512 -37.60687212 29.29708257 -32.52270508 25.34472656 C-27.67468677 21.56267004 -22.9239343 17.67057675 -18.1875 13.75 C-1.5620106 0 -1.5620106 0 0 0 Z " fill="#C6B9B7" transform="translate(347,218)"/>
<path d="M0 0 C1.73436924 1.05398621 3.46226438 2.11862879 5.1875 3.1875 C6.63189453 4.07501953 6.63189453 4.07501953 8.10546875 4.98046875 C11 7 11 7 13.34375 9.40234375 C15.57224867 11.58168436 17.37211206 12.9306029 19.98828125 14.5234375 C31.13944996 21.66572548 31.13944996 21.66572548 32.73583984 27.85107422 C33.40152044 34.59995365 32.89398134 41.29256112 32 48 C28.20297922 46.21098981 25.26651167 43.8087032 22.125 41.0625 C16.1245499 35.8932285 9.95493264 30.97761404 3.703125 26.1171875 C1 24 1 24 0 23 C-0.08713831 21.29227642 -0.10700007 19.58101351 -0.09765625 17.87109375 C-0.09443359 16.83662109 -0.09121094 15.80214844 -0.08789062 14.73632812 C-0.07951172 13.64771484 -0.07113281 12.55910156 -0.0625 11.4375 C-0.05798828 10.34501953 -0.05347656 9.25253906 -0.04882812 8.12695312 C-0.03699826 5.41791505 -0.02051543 2.70898401 0 0 Z " fill="#3E8441" transform="translate(132,192)"/>
<path d="M0 0 C2.19761704 19.00093499 2.19761704 19.00093499 -1.1484375 25.08984375 C-4.2157791 28.66840895 -8.01587777 31.18451139 -11.98046875 33.68066406 C-15.39263981 35.90979516 -18.47306014 38.54789991 -21.625 41.125 C-24.94248725 43.77492719 -28.1522901 46.16879236 -32 48 C-32.14528105 44.25040783 -32.23406281 40.50153895 -32.3125 36.75 C-32.35439453 35.68652344 -32.39628906 34.62304688 -32.43945312 33.52734375 C-32.56376097 25.62136469 -32.56376097 25.62136469 -29.66796875 22.4296875 C-28.78753906 21.95789063 -27.90710938 21.48609375 -27 21 C-26.01 20.13375 -25.02 19.2675 -24 18.375 C-20.06468239 14.97592347 -15.93545919 11.83324608 -11.79492188 8.69091797 C-9.02651088 6.58440888 -6.31464622 4.44055805 -3.66015625 2.19140625 C-1 0 -1 0 0 0 Z " fill="#3F8341" transform="translate(379,192)"/>
<path d="M0 0 C0 36.3 0 72.6 0 110 C-0.33 110 -0.66 110 -1 110 C-1.33 76.67 -1.66 43.34 -2 9 C-9.0398573 15.12220136 -9.0398573 15.12220136 -14 22 C-17.4 25 -17.4 25 -20 25 C-21.67523395 26.32255312 -23.34106818 27.65705519 -25 29 C-27.73533121 30.60901836 -28.75885515 31 -32 31 C-34.17032476 32.43990623 -34.17032476 32.43990623 -36 34 C-35.33333333 32.66666667 -34.66666667 31.33333333 -34 30 C-33.608125 29.06542969 -33.21625 28.13085938 -32.8125 27.16796875 C-30.70785575 23.48937719 -28.16840516 21.38761394 -24.8125 18.9375 C-23.56382984 17.99387141 -22.31649058 17.04847975 -21.0703125 16.1015625 C-20.41321289 15.6055957 -19.75611328 15.10962891 -19.07910156 14.59863281 C-14.65486056 11.19680918 -10.37274446 7.6147038 -6.06762695 4.06420898 C-1.10574823 0 -1.10574823 0 0 0 Z " fill="#BFC3D3" transform="translate(347,218)"/>
<path d="M0 0 C0.33 0 0.66 0 1 0 C1.20901519 9.50990161 1.36868446 19.01900665 1.46630955 28.53070831 C1.51317869 32.94805828 1.57668755 37.36383117 1.67895508 41.78027344 C1.77712789 46.046843 1.83063487 50.31190129 1.85389519 54.57951355 C1.87045838 56.2031381 1.9028061 57.82668465 1.95157051 59.44966125 C2.31755203 72.14112086 2.31755203 72.14112086 -0.92494202 76.71582031 C-3.18692082 78.7518112 -5.43006584 80.37940719 -8 82 C-9.32510914 83.04836441 -10.64111079 84.10851257 -11.94140625 85.1875 C-13.1460703 86.12803985 -14.35305871 87.06561119 -15.5625 88 C-16.50319336 88.73283203 -16.50319336 88.73283203 -17.46289062 89.48046875 C-18.97313327 90.65638287 -20.48624232 91.82861426 -22 93 C-25.1052316 91.68499626 -26.59510767 90.60179873 -28.1875 87.625 C-28.51105469 87.03976562 -28.83460938 86.45453125 -29.16796875 85.8515625 C-30.8578119 82.09106649 -31.12310569 78.68923393 -31.11352539 74.58886719 C-31.11344986 73.50804871 -31.11337433 72.42723022 -31.11329651 71.31365967 C-31.10813522 70.15312073 -31.10297394 68.99258179 -31.09765625 67.796875 C-31.0962413 66.60394836 -31.09482635 65.41102173 -31.09336853 64.1819458 C-31.08777038 60.37127171 -31.07521819 56.56065634 -31.0625 52.75 C-31.05748476 50.16666752 -31.0529219 47.58333411 -31.04882812 45 C-31.03780155 38.66664663 -31.02106524 32.33332751 -31 26 C-30.67 26 -30.34 26 -30 26 C-29.99413376 26.61672577 -29.98826752 27.23345154 -29.98222351 27.86886597 C-29.91796046 34.32628126 -29.83345819 40.78321326 -29.73754883 47.24023438 C-29.70443036 49.64544272 -29.67635833 52.05072634 -29.65356445 54.45605469 C-29.61977759 57.92675659 -29.56744905 61.39677673 -29.51171875 64.8671875 C-29.50532883 65.93113739 -29.4989389 66.99508728 -29.49235535 68.09127808 C-29.36097725 74.86324916 -28.28280364 80.62874896 -26 87 C-25.67 87.99 -25.34 88.98 -25 90 C-21.04071439 87.84038967 -17.86382584 85.22623596 -14.55078125 82.20703125 C-13 81 -13 81 -11 81 C-11 80.34 -11 79.68 -11 79 C-8 77 -8 77 -5 77 C-4.34 75.35 -3.68 73.7 -3 72 C-2.34 72 -1.68 72 -1 72 C-1.00222061 71.20121933 -1.00444122 70.40243866 -1.00672913 69.57945251 C-1.02681012 62.03225138 -1.04201387 54.4850633 -1.05181217 46.93784237 C-1.05701899 43.05824069 -1.06407647 39.17866119 -1.07543945 35.29907227 C-1.0863468 31.55136969 -1.09229341 27.80368838 -1.09487724 24.05597115 C-1.09671739 22.62992582 -1.10031064 21.20388159 -1.10573006 19.77784538 C-1.11304467 17.77240011 -1.11340895 15.76693321 -1.11352539 13.76147461 C-1.115746 12.62230087 -1.11796661 11.48312714 -1.12025452 10.30943298 C-0.99324336 6.81405555 -0.55283429 3.4515733 0 0 Z " fill="#2C5CB2" transform="translate(163,254)"/>
<path d="M0 0 C6 4 6 4 8 7 C6.68 6.34 5.36 5.68 4 5 C1.95973906 8.06039141 1.75068716 8.6433377 1.75949097 12.08122253 C1.75674164 12.90993362 1.75399231 13.73864471 1.75115967 14.59246826 C1.75835022 15.49805481 1.76554077 16.40364136 1.77294922 17.33666992 C1.77265717 18.29295792 1.77236511 19.24924591 1.77206421 20.23451233 C1.77345915 23.39992298 1.7890282 26.56509915 1.8046875 29.73046875 C1.80841704 31.92336397 1.81126429 34.11626085 1.81326294 36.30915833 C1.82090401 42.08450918 1.84055663 47.85975965 1.8626709 53.6350708 C1.88311909 59.52688234 1.89226246 65.41871009 1.90234375 71.31054688 C1.92380202 82.87374205 1.95794373 94.43686268 2 106 C2.66 106 3.32 106 4 106 C4 105.34 4 104.68 4 104 C6.19355232 102.12998922 8.39484076 100.36568034 10.6875 98.625 C11.94150869 97.65898713 13.19541665 96.69284349 14.44921875 95.7265625 C15.63269567 94.81755621 16.81628206 93.90869241 18 93 C21.54929691 90.44938031 21.54929691 90.44938031 24 87 C25.66220581 85.99260254 27.33020674 84.99477045 29 84 C32.6121147 81.45575255 36.10314999 78.9224743 39.1875 75.75 C41.29461109 73.71554791 43.24246922 72.91917693 46 72 C46 71.34 46 70.68 46 70 C46.66 70 47.32 70 48 70 C48 69.34 48 68.68 48 68 C48.556875 67.773125 49.11375 67.54625 49.6875 67.3125 C52.64187072 65.63569499 54.63102343 63.42675648 57 61 C58.64864545 59.64444707 60.31003995 58.30368347 62 57 C60.7177732 62.36835921 58.82443348 64.38827636 54.375 67.5625 C53.19222003 68.42724395 52.01131514 69.29455686 50.83203125 70.1640625 C50.2076416 70.62071289 49.58325195 71.07736328 48.93994141 71.54785156 C45.56422694 74.07475184 42.31996409 76.7610352 39.0625 79.4375 C33.97813138 83.5953322 28.86304803 87.70620044 23.6875 91.75 C11.90978653 100.87699596 11.90978653 100.87699596 1 111 C0.34 110.67 -0.32 110.34 -1 110 C-0.67 73.7 -0.34 37.4 0 0 Z " fill="#DFDFDF" transform="translate(164,218)"/>
<path d="M0 0 C0 7.59 0 15.18 0 23 C-0.33 23 -0.66 23 -1 23 C-1.33 17.72 -1.66 12.44 -2 7 C-3.98 8.32 -5.96 9.64 -8 11 C-8.62003906 11.39960938 -9.24007813 11.79921875 -9.87890625 12.2109375 C-17.0145861 17.14465582 -26.06939945 25.13879889 -30 33 C-30.23172827 35.54615009 -30.41894529 38.07396225 -30.5625 40.625 C-30.60568359 41.33140625 -30.64886719 42.0378125 -30.69335938 42.765625 C-30.79944751 44.51018537 -30.90022889 46.25506697 -31 48 C-31.33 48 -31.66 48 -32 48 C-32.14528105 44.25040783 -32.23406281 40.50153895 -32.3125 36.75 C-32.35439453 35.68652344 -32.39628906 34.62304688 -32.43945312 33.52734375 C-32.56376097 25.62136469 -32.56376097 25.62136469 -29.66796875 22.4296875 C-28.78753906 21.95789063 -27.90710938 21.48609375 -27 21 C-26.01 20.13375 -25.02 19.2675 -24 18.375 C-20.06468239 14.97592347 -15.93545919 11.83324608 -11.79492188 8.69091797 C-9.02651088 6.58440888 -6.31464622 4.44055805 -3.66015625 2.19140625 C-1 0 -1 0 0 0 Z " fill="#375A2F" transform="translate(379,192)"/>
<path d="M0 0 C1.32 0 2.64 0 4 0 C3.45338858 3.73653778 2.10543659 5.06880151 -0.8125 7.375 C-4.29821059 10.27043874 -6.55791973 13.16244529 -9 17 C-12.4 20 -12.4 20 -15 20 C-16.67523395 21.32255312 -18.34106818 22.65705519 -20 24 C-22.73533121 25.60901836 -23.75885515 26 -27 26 C-29.17032476 27.43990623 -29.17032476 27.43990623 -31 29 C-30.35330586 27.65686601 -29.68096422 26.32608822 -29 25 C-28.5875 24.13375 -28.175 23.2675 -27.75 22.375 C-26 20 -26 20 -23.3125 19.125 C-19.26039961 17.74881496 -17.06948337 15.59263017 -14.02734375 12.65625 C-12 11 -12 11 -9.4765625 10.0703125 C-5.61422834 8.40110184 -4.0615778 5.28877673 -1.74609375 1.8984375 C-0.88177734 0.95871094 -0.88177734 0.95871094 0 0 Z " fill="#CECECD" transform="translate(342,223)"/>
<path d="M0 0 C0.33 0 0.66 0 1 0 C1.0154612 1.23908615 1.0154612 1.23908615 1.03123474 2.50320435 C1.12935068 10.30095913 1.23188472 18.09864075 1.33933926 25.89627266 C1.39442339 29.90477988 1.44781949 33.91329456 1.49731445 37.921875 C1.5451729 41.79282575 1.59752217 45.66369245 1.65294075 49.53454208 C1.67326737 51.00883761 1.69199586 52.48315609 1.70907402 53.95749283 C1.7333341 56.02789826 1.76335697 58.09814799 1.79467773 60.16845703 C1.81022202 61.34538116 1.8257663 62.5223053 1.84178162 63.7348938 C1.9960766 66.91903395 2.28591642 69.89219676 3 73 C4.9001177 74.24174796 4.9001177 74.24174796 7 75 C7.66 75.99 8.32 76.98 9 78 C11.30144109 79.07136051 13.6340213 80.07989717 16 81 C16 81.66 16 82.32 16 83 C16.66 83 17.32 83 18 83 C19.33333333 84.33333333 20.66666667 85.66666667 22 87 C24.13309192 88.23512079 24.13309192 88.23512079 26 89 C25.67 89.99 25.34 90.98 25 92 C22.10240975 90.65784868 19.74740787 89.12982822 17.28515625 87.1015625 C16.59873047 86.53953125 15.91230469 85.9775 15.20507812 85.3984375 C14.49802734 84.81320312 13.79097656 84.22796875 13.0625 83.625 C11.65764456 82.47124155 10.25269873 81.31759316 8.84765625 80.1640625 C8.22898682 79.65311035 7.61031738 79.1421582 6.97290039 78.61572266 C4.96212571 76.90455579 4.96212571 76.90455579 2.41217041 75.34622192 C0 73 0 73 -0.60127258 69.74761963 C-0.59016953 68.45966492 -0.57906647 67.17171021 -0.56762695 65.84472656 C-0.56835709 65.13213181 -0.56908722 64.41953705 -0.56983948 63.68534851 C-0.56636345 61.33632557 -0.52750664 58.98930025 -0.48828125 56.640625 C-0.47895305 55.00967492 -0.47183697 53.37871081 -0.46684265 51.7477417 C-0.44777302 47.45987101 -0.39867346 43.17285032 -0.34332275 38.88531494 C-0.29212895 34.50829568 -0.26932839 30.13113875 -0.24414062 25.75390625 C-0.19055384 17.16888123 -0.10524255 8.58454642 0 0 Z " fill="#2754AA" transform="translate(347,255)"/>
<path d="M0 0 C6 4 6 4 8 7 C6.68 6.34 5.36 5.68 4 5 C1.93720299 8.09419551 1.74713503 8.76702299 1.7215271 12.27104187 C1.71036362 13.14182373 1.69920013 14.01260559 1.68769836 14.90977478 C1.68553818 15.86211502 1.68337799 16.81445526 1.68115234 17.7956543 C1.67110672 18.80071014 1.6610611 19.80576599 1.65071106 20.84127808 C1.61977875 24.16891906 1.60281592 27.49647922 1.5859375 30.82421875 C1.56723395 33.12922364 1.54766115 35.43422162 1.5272522 37.73921204 C1.47583921 43.81039364 1.43626253 49.88159747 1.39910889 55.95288086 C1.35912668 62.14637795 1.30800799 68.33978188 1.2578125 74.53320312 C1.16094467 86.68873672 1.07657465 98.84432282 1 111 C0.34 110.67 -0.32 110.34 -1 110 C-0.67 73.7 -0.34 37.4 0 0 Z " fill="#CDDAF2" transform="translate(164,218)"/>
<path d="M0 0 C4.81200759 0.44146859 7.48393351 2.75297589 10.9375 5.875 C12.08534218 6.87977587 13.23514934 7.88231056 14.38671875 8.8828125 C14.97888184 9.39875977 15.57104492 9.91470703 16.18115234 10.44628906 C19.13482365 12.96939835 22.1861784 15.36276365 25.25 17.75 C26.12507202 18.43292114 26.12507202 18.43292114 27.01782227 19.12963867 C28.67694281 20.42184058 30.33829078 21.71112977 32 23 C32.95132813 23.74121094 33.90265625 24.48242188 34.8828125 25.24609375 C36.92005379 26.83309833 38.95894177 28.41790989 41 30 C40.67 30.66 40.34 31.32 40 32 C37.06120516 30.64763423 34.70767089 29.10057341 32.25 27 C31.63640625 26.484375 31.0228125 25.96875 30.390625 25.4375 C29 24 29 24 29 22 C28.46375 21.9175 27.9275 21.835 27.375 21.75 C24.12659309 20.72418729 21.71248141 19.03436106 19 17 C19 16.34 19 15.68 19 15 C18.34 15 17.68 15 17 15 C17 14.34 17 13.68 17 13 C16.4225 12.71125 15.845 12.4225 15.25 12.125 C13.16666667 11.08333333 11.08333333 10.04166667 9 9 C9 8.34 9 7.68 9 7 C8.443125 6.773125 7.88625 6.54625 7.3125 6.3125 C4.36753316 4.64103234 2.31843456 2.44723648 0 0 Z " fill="#C55648" transform="translate(155,170)"/>
<path d="M0 0 C6.10027799 4.35734142 11.71168687 9.16738831 17.34545898 14.1003418 C21.78860603 17.98093851 26.33180408 21.69601921 30.96875 25.34375 C33.50499529 27.41176539 35.76352 29.61442133 38 32 C37.01 32 36.02 32 35 32 C35 31.34 35 30.68 35 30 C34.34 29.79375 33.68 29.5875 33 29.375 C28.92819814 27.50875748 25.31203002 25.02438473 22 22 C22 21.34 22 20.68 22 20 C21.4225 19.7525 20.845 19.505 20.25 19.25 C17.68880083 17.82711157 16.0666952 16.0666952 14 14 C13.23171875 13.54496094 12.4634375 13.08992187 11.671875 12.62109375 C8.92002875 10.95147943 6.60723264 9.11877087 4.1875 7 C3.39730469 6.319375 2.60710937 5.63875 1.79296875 4.9375 C0 3 0 3 0 0 Z " fill="#D25447" transform="translate(239,236)"/>
<path d="M0 0 C0 4.25353911 -1.94788301 5.73289227 -4.7265625 8.80078125 C-10.65481282 14.53549762 -17.78848591 20.24038984 -26 22 C-21.77370431 17.58045421 -17.17317952 13.73671291 -12.4375 9.875 C-11.68275391 9.25496094 -10.92800781 8.63492188 -10.15039062 7.99609375 C-6.81319735 5.26165344 -3.46563954 2.57089196 0 0 Z " fill="#C5BAB8" transform="translate(315,243)"/>
<path d="M0 0 C0 4.03378362 -1.29764371 5.04718142 -4 8 C-6.12177065 9.73426975 -8.23028289 11.38557834 -10.4375 13 C-13.75677833 15.44457783 -16.80979253 17.80566954 -19.703125 20.76171875 C-22.45255902 23.44101415 -24.23329077 23.73720633 -28 24 C-23.81240606 19.62168396 -19.25952932 15.81965199 -14.5625 12 C-13.08452396 10.79180299 -11.6066574 9.58347205 -10.12890625 8.375 C-9.42910645 7.80394531 -8.72930664 7.23289063 -8.00830078 6.64453125 C-5.32439482 4.44676921 -2.66039978 2.22613484 0 0 Z " fill="#CA5D4F" transform="translate(338,181)"/>
<path d="M0 0 C2.97 1.98 2.97 1.98 6 4 C5.01 4.33 4.02 4.66 3 5 C1.72281194 7.55437612 1.84038535 9.41588781 1.79467773 12.27587891 C1.77473251 13.3768692 1.75478729 14.4778595 1.73423767 15.61221313 C1.71752518 16.80494843 1.70081268 17.99768372 1.68359375 19.2265625 C1.66281265 20.44451508 1.64203156 21.66246765 1.62062073 22.91732788 C1.55507416 26.8198262 1.49621645 30.7223935 1.4375 34.625 C1.39431965 37.26563222 1.35070552 39.90625739 1.30664062 42.546875 C1.19938756 49.03117643 1.09763071 55.51554694 1 62 C1.66 62.33 2.32 62.66 3 63 C1.515 63.495 1.515 63.495 0 64 C0 42.88 0 21.76 0 0 Z " fill="#D8A309" transform="translate(132,215)"/>
<path d="M0 0 C11.37473233 6.98929336 11.37473233 6.98929336 16 12 C18.2987969 14.041215 20.64450346 16.02464123 23 18 C19.24277693 18 18.41178964 16.97938773 15.5625 14.625 C12.7974559 12.35120739 10.26348864 10.48027438 7 9 C3.11111111 7.11111111 3.11111111 7.11111111 2 6 C1.67 8.31 1.34 10.62 1 13 C0.67 13 0.34 13 0 13 C0 8.71 0 4.42 0 0 Z " fill="#45512B" transform="translate(132,192)"/>
<path d="M0 0 C0.66 0 1.32 0 2 0 C0.71882171 4.69765371 -1.99527893 7.21802661 -5.44140625 10.44921875 C-8.66545756 13.65710941 -8.32071933 17.32843856 -8.5625 21.625 C-8.60568359 22.33140625 -8.64886719 23.0378125 -8.69335938 23.765625 C-8.79944751 25.51018537 -8.90022889 27.25506697 -9 29 C-9.33 29 -9.66 29 -10 29 C-10 21.41 -10 13.82 -10 6 C-8.02 6 -6.04 6 -4 6 C-3.71125 5.38125 -3.4225 4.7625 -3.125 4.125 C-2 2 -2 2 0 0 Z " fill="#2D6631" transform="translate(357,211)"/>
<path d="M0 0 C0.66 0.33 1.32 0.66 2 1 C-21.13333333 21 -21.13333333 21 -24 21 C-24 19 -24 19 -22.6875 17.375 C-21 16 -21 16 -18 16 C-17.7525 15.4225 -17.505 14.845 -17.25 14.25 C-15.80606301 11.65091342 -14.26478013 9.92163162 -12 8 C-11.01 8 -10.02 8 -9 8 C-9 7.34 -9 6.68 -9 6 C-8.01 6 -7.02 6 -6 6 C-6 5.34 -6 4.68 -6 4 C-5.34 4 -4.68 4 -4 4 C-4 3.34 -4 2.68 -4 2 C-2.125 0.9375 -2.125 0.9375 0 0 Z " fill="#9C3931" transform="translate(304,250)"/>
<path d="M0 0 C6.19086374 2.19004864 11.36872395 4.24684826 16 9 C16 9.99 16 10.98 16 12 C12.17670414 11.4833384 10.62665115 10.74085338 8 8 C7.360625 7.87625 6.72125 7.7525 6.0625 7.625 C2.93981693 6.6787324 1.79380941 4.6266495 0 2 C0 1.34 0 0.68 0 0 Z " fill="#C6BAB7" transform="translate(186,239)"/>
<path d="M0 0 C6 4 6 4 8 7 C6.68 6.34 5.36 5.68 4 5 C1.64290358 8.53564463 1.69990265 10.22025255 1.5859375 14.41796875 C1.54726562 15.67158203 1.50859375 16.92519531 1.46875 18.21679688 C1.4378125 19.52712891 1.406875 20.83746094 1.375 22.1875 C1.33680662 23.5228116 1.29775409 24.85809892 1.2578125 26.19335938 C1.16340847 29.46209888 1.07782983 32.73083064 1 36 C0.67 36 0.34 36 0 36 C0 24.12 0 12.24 0 0 Z " fill="#DBDFCB" transform="translate(164,218)"/>
<path d="M0 0 C0.33 0.66 0.66 1.32 1 2 C0.07347299 3.17539996 -0.86663387 4.34010577 -1.8125 5.5 C-2.59560547 6.47453125 -2.59560547 6.47453125 -3.39453125 7.46875 C-5 9 -5 9 -8 9 C-10.67398476 10.93897879 -10.67398476 10.93897879 -13 13 C-13 10 -13 10 -11.171875 8.02734375 C-10.37265625 7.33769531 -9.5734375 6.64804688 -8.75 5.9375 C-7.96109375 5.24527344 -7.1721875 4.55304688 -6.359375 3.83984375 C-4.28488147 2.22215095 -2.39469719 1.06003798 0 0 Z M-16 12 C-15.34 12.33 -14.68 12.66 -14 13 C-14.99 13.66 -15.98 14.32 -17 15 C-16.67 14.01 -16.34 13.02 -16 12 Z " fill="#D9D9D9" transform="translate(335,234)"/>
<path d="M0 0 C0 7.59 0 15.18 0 23 C-0.33 23 -0.66 23 -1 23 C-1.33 17.72 -1.66 12.44 -2 7 C-3.98 8.32 -5.96 9.64 -8 11 C-9.3191582 11.69429379 -10.64649406 12.37530495 -12 13 C-11.38511719 12.31164062 -11.38511719 12.31164062 -10.7578125 11.609375 C-10.21898437 10.99578125 -9.68015625 10.3821875 -9.125 9.75 C-8.59132813 9.14671875 -8.05765625 8.5434375 -7.5078125 7.921875 C-5.93501282 6.0608085 -5.93501282 6.0608085 -4.9921875 3.890625 C-3.90730751 1.82337336 -2.63021769 0 0 0 Z " fill="#28642B" transform="translate(379,192)"/>
<path d="M0 0 C0 0.99 0 1.98 0 3 C-1.97946592 4.36363208 -3.9819245 5.69418644 -6 7 C-7.6083124 8.86655232 -7.6083124 8.86655232 -9 11 C-10.64251625 13.02079272 -12.32390174 15.00680207 -14 17 C-14.6640625 15.25390625 -14.6640625 15.25390625 -15 13 C-12.52589853 8.15410953 -8.92554064 4.33315083 -4 2 C-3.236875 1.608125 -2.47375 1.21625 -1.6875 0.8125 C-1.130625 0.544375 -0.57375 0.27625 0 0 Z " fill="#CACAC9" transform="translate(300,259)"/>
<path d="M0 0 C4.55018722 2.90936213 8.65744968 6.10634754 12.75 9.625 C13.32621094 10.11484375 13.90242187 10.6046875 14.49609375 11.109375 C16.73092313 13.01601265 18.92199455 14.92199455 21 17 C15.80701616 16.60128776 13.08180088 13.89269668 9.375 10.5625 C4.85628715 6.5698141 4.85628715 6.5698141 0 3 C0 2.01 0 1.02 0 0 Z " fill="#C4584B" transform="translate(218,219)"/>
<path d="M0 0 C0.33 0 0.66 0 1 0 C1 11.88 1 23.76 1 36 C0.67 36 0.34 36 0 36 C0 25.77 0 15.54 0 5 C-2.31 5.66 -4.62 6.32 -7 7 C-4.66666667 4.66666667 -2.33333333 2.33333333 0 0 Z " fill="#C3C2AB" transform="translate(346,218)"/>
<path d="M0 0 C2.0625 0.4375 2.0625 0.4375 4 1 C2.49650623 4.66786393 0.36271208 6.68910393 -2.625 9.25 C-3.44226563 9.95640625 -4.25953125 10.6628125 -5.1015625 11.390625 C-5.72804688 11.92171875 -6.35453125 12.4528125 -7 13 C-7.66 12.67 -8.32 12.34 -9 12 C-7.68858144 10.18671738 -6.37583526 8.37439486 -5.0625 6.5625 C-3.96615234 5.04849609 -3.96615234 5.04849609 -2.84765625 3.50390625 C-1 1 -1 1 0 0 Z " fill="#CAC6C5" transform="translate(277,274)"/>
<path d="M0 0 C6.00073223 4.31660302 11.54006063 9.02033308 17 14 C11.65376501 14 8.06962792 10.39927618 4.1875 7 C3.39730469 6.319375 2.60710937 5.63875 1.79296875 4.9375 C0 3 0 3 0 0 Z " fill="#C8584B" transform="translate(239,236)"/>
<path d="M0 0 C0.33 0.99 0.66 1.98 1 3 C-5.421646 8.57384442 -5.421646 8.57384442 -8.375 10.75 C-10.14258418 11.9216071 -10.14258418 11.9216071 -11 14 C-14.0625 14.625 -14.0625 14.625 -17 15 C-13.59049601 11.49094845 -10.05958699 8.31826195 -6.25 5.25 C-3.02987225 2.73321911 -3.02987225 2.73321911 0 0 Z " fill="#C6584D" transform="translate(290,220)"/>
<path d="M0 0 C2.475 0.99 2.475 0.99 5 2 C5 2.66 5 3.32 5 4 C5.556875 4.2475 6.11375 4.495 6.6875 4.75 C10.94019691 7.04875509 14.19845585 9.41425125 16 14 C12.25464 12.31822427 9.03393738 9.99402779 5.75 7.5625 C5.19570313 7.16740234 4.64140625 6.77230469 4.0703125 6.36523438 C2.65529947 5.31791561 1.32022403 4.16453724 0 3 C0 2.01 0 1.02 0 0 Z " fill="#D8D8D8" transform="translate(287,278)"/>
<path d="M0 0 C0.66 0.33 1.32 0.66 2 1 C0.7934375 2.0828125 0.7934375 2.0828125 -0.4375 3.1875 C-4.4717283 7.89409968 -3.90361443 14.09419344 -4 20 C-4.66 20 -5.32 20 -6 20 C-6.92017937 6.4529148 -6.92017937 6.4529148 -4.6640625 2.890625 C-3 1.5625 -3 1.5625 0 0 Z " fill="#C19913" transform="translate(353,235)"/>
<path d="M0 0 C1.36222983 0.60543548 2.68861096 1.29114106 4 2 C4.86625 2.4434375 5.7325 2.886875 6.625 3.34375 C10.44680594 7.61813822 9.5297251 12.2358245 9.3125 17.75 C9.27866211 19.36841797 9.27866211 19.36841797 9.24414062 21.01953125 C9.1852565 23.6810935 9.10307001 26.33984228 9 29 C8.67 29 8.34 29 8 29 C7.92652344 27.26363281 7.92652344 27.26363281 7.8515625 25.4921875 C7.77648522 23.9531033 7.70093957 22.4140419 7.625 20.875 C7.5940625 20.11445313 7.563125 19.35390625 7.53125 18.5703125 C7.22185492 12.58867436 6.54506059 7.23401433 2.375 2.625 C1.59125 1.75875 0.8075 0.8925 0 0 Z " fill="#24642E" transform="translate(155,211)"/>
<path d="M0 0 C0.33 0.99 0.66 1.98 1 3 C-0.72572488 4.44163007 -2.4557347 5.87813165 -4.1875 7.3125 C-5.15042969 8.11300781 -6.11335938 8.91351563 -7.10546875 9.73828125 C-9.67167214 11.74345232 -12.09480327 13.52984 -15 15 C-15.66 14.67 -16.32 14.34 -17 14 C-14.91784697 12.22776281 -12.83433081 10.45717274 -10.75 8.6875 C-10.16347656 8.18798828 -9.57695312 7.68847656 -8.97265625 7.17382812 C-6.04373434 4.68918088 -3.11144626 2.2565687 0 0 Z " fill="#C75549" transform="translate(309,205)"/>
<path d="M0 0 C0.66 0.33 1.32 0.66 2 1 C-6.25724265 10.99671255 -6.25724265 10.99671255 -12 13 C-12.99 13 -13.98 13 -15 13 C-10.06664998 8.58191098 -5.12002677 4.20104761 0 0 Z " fill="#657BA2" transform="translate(161,255)"/>
<path d="M0 0 C4.27454425 2.7479213 8.14126153 5.69250989 12 9 C8.12149695 10.29283435 6.6541538 9.7509487 3 8 C0 3.2 0 3.2 0 0 Z " fill="#C0B2B0" transform="translate(228,270)"/>
<path d="M0 0 C1.65 0.99 3.3 1.98 5 3 C5 3.99 5 4.98 5 6 C5.66 6 6.32 6 7 6 C7 6.99 7 7.98 7 9 C3.125 7.125 3.125 7.125 2 6 C1.67 8.31 1.34 10.62 1 13 C0.67 13 0.34 13 0 13 C0 8.71 0 4.42 0 0 Z " fill="#32642F" transform="translate(132,192)"/>
<path d="M0 0 C0 3 0 3 -1 5 C-1.66 5 -2.32 5 -3 5 C-3 5.66 -3 6.32 -3 7 C-8.35714286 12 -8.35714286 12 -12 12 C-10.47940093 8.11985064 -8.13921469 6.26093438 -4.875 3.75 C-3.96492188 3.04359375 -3.05484375 2.3371875 -2.1171875 1.609375 C-1.41851562 1.07828125 -0.71984375 0.5471875 0 0 Z " fill="#B54B45" transform="translate(269,237)"/>
<path d="M0 0 C0.99 0.33 1.98 0.66 3 1 C3 5.62 3 10.24 3 15 C2.01 15.495 2.01 15.495 1 16 C0.67 10.72 0.34 5.44 0 0 Z " fill="#C5950B" transform="translate(161,239)"/>
<path d="M0 0 C0.99 0.33 1.98 0.66 3 1 C2.46890625 1.43570313 1.9378125 1.87140625 1.390625 2.3203125 C-2.87083897 5.91300657 -6.18134848 9.18480366 -9 14 C-9.66 13.67 -10.32 13.34 -11 13 C-7.98970065 7.63207683 -5.15096701 3.47130385 0 0 Z " fill="#B94739" transform="translate(144,161)"/>
<path d="M0 0 C1.98 0.495 1.98 0.495 4 1 C4.66 3.31 5.32 5.62 6 8 C3.625 9.5625 3.625 9.5625 1 11 C0.34 10.67 -0.32 10.34 -1 10 C-0.01 8.35 0.98 6.7 2 5 C1.34 4.34 0.68 3.68 0 3 C0 2.01 0 1.02 0 0 Z " fill="#C2C0BF" transform="translate(224,269)"/>
<path d="M0 0 C0.66 0.33 1.32 0.66 2 1 C1.236875 1.7425 0.47375 2.485 -0.3125 3.25 C-2.97233886 5.79090024 -2.97233886 5.79090024 -4.5 8.3125 C-6 10 -6 10 -8.6875 10.25 C-9.450625 10.1675 -10.21375 10.085 -11 10 C-7.54563567 6.40746109 -3.80635497 3.20760251 0 0 Z " fill="#40532D" transform="translate(359,207)"/>
<path d="M0 0 C0.66 0.33 1.32 0.66 2 1 C-1.01307936 7.19355202 -5.85407215 8.65008641 -12 11 C-8.19588166 7.08060535 -4.18423892 3.50897269 0 0 Z " fill="#C5B1AF" transform="translate(301,254)"/>
<path d="M0 0 C7.5273523 2.15317287 7.5273523 2.15317287 9.5 5.6875 C9.665 6.450625 9.83 7.21375 10 8 C6.05783322 7.7312159 4.43510186 7.44655191 1.625 4.5625 C0 2 0 2 0 0 Z " fill="#C9C6C5" transform="translate(186,239)"/>
<path d="M0 0 C1.27310312 0.93441535 2.543388 1.87267111 3.8125 2.8125 C4.52019531 3.33457031 5.22789062 3.85664063 5.95703125 4.39453125 C7.78531393 5.83128877 9.39896688 7.31815763 11 9 C6.85409858 8.52887484 3.95623138 8.06572143 1 5 C0.25 2.3125 0.25 2.3125 0 0 Z " fill="#C3B1AF" transform="translate(183,233)"/>
<path d="M0 0 C2.6875 -0.3125 2.6875 -0.3125 5 0 C2.12505529 3.98069267 -0.82117329 6.43571997 -5 9 C-4.35330586 7.65686601 -3.68096422 6.32608822 -3 5 C-2.3503125 3.63875 -2.3503125 3.63875 -1.6875 2.25 C-1.130625 1.5075 -0.57375 0.765 0 0 Z " fill="#C9C8C7" transform="translate(316,243)"/>
<path d="M0 0 C0.33 0.66 0.66 1.32 1 2 C0.67 2.66 0.34 3.32 0 4 C-0.99 4.33 -1.98 4.66 -3 5 C-3.99 6.485 -3.99 6.485 -5 8 C-5.66 8 -6.32 8 -7 8 C-7 8.66 -7 9.32 -7 10 C-8.65 10.33 -10.3 10.66 -12 11 C-8.19588166 7.08060535 -4.18423892 3.50897269 0 0 Z " fill="#C75D4F" transform="translate(353,169)"/>
<path d="M0 0 C2 3.75 2 3.75 2 6 C2.61875 6.226875 3.2375 6.45375 3.875 6.6875 C6.61410209 8.37929835 7.05024472 9.99244161 8 13 C5.08917564 11.2262164 2.40317545 9.42952606 0 7 C-0.5 3.125 -0.5 3.125 0 0 Z " fill="#3861B7" transform="translate(348,322)"/>
<path d="M0 0 C0.99 0.33 1.98 0.66 3 1 C2.01 1.33 1.02 1.66 0 2 C-0.33 2.99 -0.66 3.98 -1 5 C-3.06640625 6.60546875 -3.06640625 6.60546875 -5.5625 8.1875 C-6.38878906 8.71730469 -7.21507812 9.24710938 -8.06640625 9.79296875 C-8.70449219 10.19128906 -9.34257812 10.58960938 -10 11 C-10 10.01 -10 9.02 -10 8 C-9.360625 7.71125 -8.72125 7.4225 -8.0625 7.125 C-5.84793921 6.17176549 -5.84793921 6.17176549 -5 4 C-4.01 3.67 -3.02 3.34 -2 3 C-1.34 2.01 -0.68 1.02 0 0 Z " fill="#913B2B" transform="translate(375,192)"/>
<path d="M0 0 C6.26648937 2.21170213 10.96551203 4.93102407 14 11 C10.50004453 9.43810398 7.72827143 7.33666309 4.75 4.9375 C3.85796875 4.22464844 2.9659375 3.51179687 2.046875 2.77734375 C1.37140625 2.19082031 0.6959375 1.60429687 0 1 C0 0.67 0 0.34 0 0 Z " fill="#9C3B33" transform="translate(170,222)"/>
<path d="M0 0 C0.8353125 0.37125 0.8353125 0.37125 1.6875 0.75 C0.4809375 1.1521875 0.4809375 1.1521875 -0.75 1.5625 C-1.595625 1.954375 -2.44125 2.34625 -3.3125 2.75 C-3.6425 3.74 -3.9725 4.73 -4.3125 5.75 C-6.875 6.9375 -6.875 6.9375 -9.3125 7.75 C-7.69865111 3.642021 -4.79776509 -0.51867731 0 0 Z " fill="#C8574A" transform="translate(365.3125,161.25)"/>
<path d="M0 0 C0.33 0.99 0.66 1.98 1 3 C0.34 3.66 -0.32 4.32 -1 5 C-1.6425235 7.06874034 -1.6425235 7.06874034 -2 9 C-4.475 8.01 -4.475 8.01 -7 7 C-4.66666667 4.66666667 -2.33333333 2.33333333 0 0 Z " fill="#BAABA8" transform="translate(285,267)"/>
<path d="M0 0 C1.27310312 0.93441535 2.543388 1.87267111 3.8125 2.8125 C4.52019531 3.33457031 5.22789062 3.85664063 5.95703125 4.39453125 C7.78531393 5.83128877 9.39896688 7.31815763 11 9 C9.35 8.67 7.7 8.34 6 8 C6 7.34 6 6.68 6 6 C5.38125 5.87625 4.7625 5.7525 4.125 5.625 C2 5 2 5 0 3 C0 2.01 0 1.02 0 0 Z " fill="#C4584B" transform="translate(201,205)"/>
<path d="M0 0 C0.66 0.66 1.32 1.32 2 2 C-0.97 4.475 -0.97 4.475 -4 7 C-4 5.68 -4 4.36 -4 3 C-2 1.25 -2 1.25 0 0 Z " fill="#D2D2D2" transform="translate(289,269)"/>
<path d="M0 0 C0.66 0.33 1.32 0.66 2 1 C-0.31 3.64 -2.62 6.28 -5 9 C-5.66 8.01 -6.32 7.02 -7 6 C-4.69 4.02 -2.38 2.04 0 0 Z " fill="#5D79AE" transform="translate(139,273)"/>
<path d="M0 0 C0 3 0 3 -2.5 5.6875 C-3.325 6.450625 -4.15 7.21375 -5 8 C-5.99 7.67 -6.98 7.34 -8 7 C-5.36 4.69 -2.72 2.38 0 0 Z " fill="#C2AFAD" transform="translate(337,225)"/>
<path d="M0 0 C3.45561452 1.53582868 6.28213525 3.35763149 9 6 C9.3125 8.75 9.3125 8.75 9 11 C8.443125 10.29875 7.88625 9.5975 7.3125 8.875 C4.90875268 5.88655739 2.46189568 2.94059762 0 0 Z " fill="#354E26" transform="translate(155,211)"/>
<path d="M0 0 C5.75 3.625 5.75 3.625 8 7 C7.401875 6.690625 6.80375 6.38125 6.1875 6.0625 C3.91043228 4.89790296 3.91043228 4.89790296 1 4 C0.67 4.66 0.34 5.32 0 6 C0 4.02 0 2.04 0 0 Z " fill="#C2B6B1" transform="translate(164,218)"/>
<path d="M0 0 C-4.88077452 2.44038726 -7.52667068 3.46845421 -13 2 C-13 1.67 -13 1.34 -13 1 C-11.20994059 0.63779734 -9.41787943 0.28547531 -7.625 -0.0625 C-6.12839844 -0.35833984 -6.12839844 -0.35833984 -4.6015625 -0.66015625 C-2 -1 -2 -1 0 0 Z " fill="#AF4034" transform="translate(267,283)"/>
<path d="M0 0 C0 3 0 3 -1 6 C-3.0625 7.6875 -3.0625 7.6875 -5 9 C-5.66 8.67 -6.32 8.34 -7 8 C-4.69 5.36 -2.38 2.72 0 0 Z " fill="#D5D5D5" transform="translate(225,275)"/>
<path d="M0 0 C1.65 0 3.3 0 5 0 C5.66 1.65 6.32 3.3 7 5 C6.01 5 5.02 5 4 5 C1.8125 2.5 1.8125 2.5 0 0 Z " fill="#C7C3C0" transform="translate(177,232)"/>
<path d="M0 0 C0.33 0.66 0.66 1.32 1 2 C-1.77280706 5.08089673 -4.06326356 6.68775452 -8 8 C-5.33333333 5.33333333 -2.66666667 2.66666667 0 0 Z " fill="#C55E52" transform="translate(300,212)"/>
<path d="M0 0 C-3 2 -3 2 -5.125 2.5 C-5.74375 2.665 -6.3625 2.83 -7 3 C-7.33 3.66 -7.66 4.32 -8 5 C-9.32 4.34 -10.64 3.68 -12 3 C-4.71428571 -0.42857143 -4.71428571 -0.42857143 0 0 Z " fill="#EEE5E4" transform="translate(157,157)"/>
<path d="M0 0 C0.99 0.33 1.98 0.66 3 1 C0.36 2.98 -2.28 4.96 -5 7 C-5 6.01 -5 5.02 -5 4 C-4.34 4 -3.68 4 -3 4 C-3 3.34 -3 2.68 -3 2 C-2.01 1.34 -1.02 0.68 0 0 Z " fill="#5D8A37" transform="translate(364,224)"/>
<path d="M0 0 C2.31 1.65 4.62 3.3 7 5 C5.68 5.33 4.36 5.66 3 6 C0 2.25 0 2.25 0 0 Z " fill="#C25649" transform="translate(149,163)"/>
</svg>
