<?xml version="1.0" encoding="UTF-8"?>
<svg version="1.1" xmlns="http://www.w3.org/2000/svg" width="512" height="512">
<path d="M0 0 C168.96 0 337.92 0 512 0 C512 168.96 512 337.92 512 512 C343.04 512 174.08 512 0 512 C0 343.04 0 174.08 0 0 Z " fill="#181818" transform="translate(0,0)"/>
<path d="M0 0 C1.74829271 5.57729997 2.18629033 10.5741022 2.25 16.375 C2.46032662 23.09157602 3.65863618 27.39723813 7.62890625 32.9765625 C9.39468544 35.58247024 9.91972648 37.86933272 10 41 C9.67 41.33 9.34 41.66 9 42 C8.58219121 44.37305578 8.58219121 44.37305578 9 47 C9.680625 47.680625 10.36125 48.36125 11.0625 49.0625 C13 51 13 51 13.0625 53.125 C11.57059388 55.7577755 9.81862363 56.13273119 7 57 C7.2165625 58.0828125 7.2165625 58.0828125 7.4375 59.1875 C7.623125 60.115625 7.80875 61.04375 8 62 C8.20625 62.9075 8.4125 63.815 8.625 64.75 C8.810625 65.86375 8.810625 65.86375 9 67 C7.03177114 68.96822886 3.65191291 68.66248381 1 69 C0.8246875 69.90363281 0.649375 70.80726563 0.46875 71.73828125 C-1.55536128 76.23331561 -4.14365396 77.22066266 -8.5 79.1875 C-9.21889404 79.52845703 -9.93778809 79.86941406 -10.6784668 80.22070312 C-16.80557734 83.06265997 -23.15160131 86 -30 86 C-30.61088045 93.57491763 -29.10703633 98.59070951 -25 105 C-24.43410156 105.48984375 -23.86820312 105.9796875 -23.28515625 106.484375 C-22 108 -22 108 -22.109375 110.3046875 C-22.32078125 111.15289062 -22.5321875 112.00109375 -22.75 112.875 C-22.95109375 113.71804688 -23.1521875 114.56109375 -23.359375 115.4296875 C-23.57078125 116.27789062 -23.7821875 117.12609375 -24 118 C-25.82870817 126.37422222 -24.70832091 133.70244128 -23 142 C-23.83591675 141.89498169 -23.83591675 141.89498169 -24.6887207 141.7878418 C-32.19386085 140.93311282 -39.63921997 140.81648747 -47.1875 140.8125 C-48.41919922 140.80025391 -49.65089844 140.78800781 -50.91992188 140.77539062 C-57.07067479 140.76544332 -62.1707051 141.08915229 -68 143 C-68.99 142.67 -69.98 142.34 -71 142 C-70.01 135.73 -69.02 129.46 -68 123 C-72.74103223 122.20982796 -76.9930939 121.89345081 -81.7421875 121.9296875 C-83.23568874 121.92110404 -84.7291801 121.91062841 -86.22265625 121.8984375 C-88.54910368 121.88176749 -90.87331173 121.87498156 -93.19970703 121.90039062 C-107.81708792 122.03668322 -107.81708792 122.03668322 -112.85546875 117.640625 C-113.93155322 116.45175966 -114.98199491 115.23896094 -116 114 C-117.1383461 112.95015638 -118.28315133 111.90722218 -119.4375 110.875 C-122.90614208 106.77230507 -122.68075327 102.26858235 -122.69921875 97.0859375 C-123.04375736 93.55106087 -123.84455468 91.801108 -126 89 C-127.93710651 87.58771862 -127.93710651 87.58771862 -130.0625 86.5625 C-133.27889727 84.70938304 -133.89036071 84.2421201 -135.5 80.6875 C-135.7475 79.3571875 -135.7475 79.3571875 -136 78 C-128.69774959 78.50360348 -124.20810939 80.32890979 -119.25 85.9375 C-115.83426942 90.58668885 -114.777836 94.33471753 -114.4375 100.0625 C-114.30490645 105.16216434 -114.30490645 105.16216434 -113 110 C-108.54290275 112.41593573 -104.2064332 112.32692445 -99.26953125 112.37890625 C-98.02208382 112.40439796 -98.02208382 112.40439796 -96.74943542 112.43040466 C-94.10386655 112.48335301 -91.45831212 112.52376437 -88.8125 112.5625 C-86.15605341 112.60644194 -83.49972714 112.65311253 -80.84342957 112.70530701 C-79.19306006 112.73724408 -77.54258387 112.76414048 -75.89204407 112.78553772 C-70.22350406 112.88824797 -70.22350406 112.88824797 -68 114 C-68.680625 113.113125 -69.36125 112.22625 -70.0625 111.3125 C-72 108 -72 108 -72 105.6875 C-71.09345369 103.2511568 -70.04624386 100.97362946 -68.9375 98.625 C-67.00680162 94.46389193 -66.61326529 91.54413287 -67 87 C-68.0725 86.608125 -69.145 86.21625 -70.25 85.8125 C-90.92558351 78.00416793 -90.92558351 78.00416793 -95 74 C-95.5 70.6875 -95.5 70.6875 -95 68 C-97.64 68 -100.28 68 -103 68 C-103.20086443 64.28400809 -103.1519437 63.22791555 -101 60 C-101 59.01 -101 58.02 -101 57 C-102.98 56.34 -104.96 55.68 -107 55 C-107.25 52.75 -107.25 52.75 -107 50 C-106.319375 49.443125 -105.63875 48.88625 -104.9375 48.3125 C-104.298125 47.549375 -103.65875 46.78625 -103 46 C-103.17750263 43.87207894 -103.17750263 43.87207894 -103.6875 41.5 C-104.43765067 36.59187136 -103.39252477 34.50212728 -100.625 30.4375 C-96.36771115 23.92932773 -96.19814745 18.5065049 -96.16796875 10.98046875 C-95.99472861 6.87508026 -95.27884854 3.86687405 -94 0 C-87.0874045 0.45082145 -80.259691 2.99570747 -75.10546875 7.74609375 C-72.9771197 9.30467212 -72.9771197 9.30467212 -70.03125 8.63671875 C-68.8659375 8.32347656 -67.700625 8.01023438 -66.5 7.6875 C-53.94010971 4.73278346 -41.35357672 5.07364206 -28.8125 7.875 C-23.53429033 9.03376871 -23.53429033 9.03376871 -18.296875 8.00390625 C-16.04617748 6.4819067 -16.04617748 6.4819067 -14.0625 4.7109375 C-10.68872906 1.91224115 -4.24162513 -2.12081257 0 0 Z " fill="#FCFCFC" transform="translate(307,167)"/>
<path d="M0 0 C6.82153973 0.32432043 12.3323076 4.26993955 18.09960938 7.58203125 C18.91365234 8.03191406 19.72769531 8.48179687 20.56640625 8.9453125 C21.29802979 9.36312988 22.02965332 9.78094727 22.78344727 10.21142578 C28.00763697 12.07001514 34.32197492 8.66747299 39.35546875 7.03515625 C48.72007719 4.37532642 57.44849584 3.64446866 67.1875 3.6875 C68.47382324 3.69168945 69.76014648 3.69587891 71.08544922 3.70019531 C83.40565713 3.84684588 94.22874296 5.4254409 105.6328125 10.328125 C110.12061345 11.60189029 113.73544513 9.80840796 117.6875 7.6796875 C118.98300781 7.00099609 118.98300781 7.00099609 120.3046875 6.30859375 C122.10481182 5.35113632 123.90169553 4.38756169 125.6953125 3.41796875 C126.99082031 2.74314453 126.99082031 2.74314453 128.3125 2.0546875 C129.48232422 1.42796143 129.48232422 1.42796143 130.67578125 0.78857422 C133.4963322 -0.16839842 135.17212892 0.1948075 138 1 C140.37714409 7.29545096 141.52340796 13.20900026 142.25 19.875 C143.20181733 27.27704307 144.7236306 32.47338311 149.23046875 38.57421875 C159.00680493 51.97621603 161.21043916 69.03657759 161.29516602 85.10009766 C161.30658632 86.59889237 161.32687674 88.09764971 161.35668945 89.59619141 C161.64615859 104.19902001 159.42339915 117.46363439 152.875 130.6875 C152.48957031 131.48075684 152.10414063 132.27401367 151.70703125 133.09130859 C147.98604054 140.48094489 143.45549184 146.8061056 138 153 C137.29359375 153.80566406 136.5871875 154.61132812 135.859375 155.44140625 C126.802414 165.0853925 115.22458307 172.95428283 103 178 C102.34 178 101.68 178 101 178 C96.98301609 168.9617862 98.58420713 159.20124601 101.69140625 150.1484375 C105.38922358 141.25159938 111.31786018 134.30631502 117.578125 127.12792969 C127.95431312 115.21234497 134.45589293 103.53159374 134.27734375 87.3828125 C133.60518159 79.1843276 131.19131253 71.66977027 126.875 64.6875 C123.34558048 58.69898618 123.01982527 52.90415488 122.43359375 46.12890625 C121.95953932 40.89983261 120.61500897 35.98499435 119 31 C110.11507878 32.31701266 101.52157989 34.98561341 94 40 C91.65234375 40.01171875 91.65234375 40.01171875 88.9375 39.6875 C87.95394531 39.57921875 86.97039062 39.4709375 85.95703125 39.359375 C84.98121094 39.24078125 84.00539063 39.1221875 83 39 C73.87823217 37.91168861 64.74391803 37.18725275 55.625 38.66015625 C46.30693673 40.1323152 40.36166429 40.42697397 31.796875 35.578125 C26.82764938 32.77426026 22.70124291 31.72851224 17 32 C14.57751454 38.78295928 12.82349613 44.95430105 12.625 52.1875 C12.35228552 58.22047652 10.90182573 61.46775501 7.56640625 66.39453125 C1.34937885 76.73557184 0.13817442 90.10185202 2.87109375 101.6953125 C3.82980436 104.83482636 4.89029715 107.91154989 6 111 C6.35344022 112.32814491 6.69610229 113.65965114 7 115 C6.360625 115.28875 5.72125 115.5775 5.0625 115.875 C2.84793921 116.82823451 2.84793921 116.82823451 2 119 C-0.43259577 117.91884632 -2.17956886 116.8409533 -4.1875 115.0625 C-9.73708323 110.99280563 -16.25644077 109.71739992 -23 109 C-29.17377003 81.38340372 -22.47291359 56.20960633 -9 32 C-7.40040336 29.11903763 -6.66057526 26.74847863 -6.25390625 23.48046875 C-6.13853516 22.62259766 -6.02316406 21.76472656 -5.90429688 20.88085938 C-5.67795758 19.09730575 -5.45396654 17.31345241 -5.23242188 15.52929688 C-3.62019491 3.62019491 -3.62019491 3.62019491 0 0 Z " fill="#FBFBFA" transform="translate(192,128)"/>
<path d="M0 0 C2.97 0 5.94 0 9 0 C9.33 5.61 9.66 11.22 10 17 C11.98 15.68 13.96 14.36 16 13 C20.02151356 12.061154 23.41455391 12.786087 27.25 14.1875 C31.73934007 17.14638323 34.61126757 20.79225337 36 26 C36.78789961 32.90009054 36.04930161 38.27512531 32 44 C29.3209729 47.13642197 27.49131584 48.74885441 23.37890625 49.44140625 C17.29714168 49.69721996 13.61473284 48.99112029 9 45 C8.67 45.99 8.34 46.98 8 48 C5.36 48 2.72 48 0 48 C0 32.16 0 16.32 0 0 Z " fill="#F9F9F8" transform="translate(336,342)"/>
<path d="M0 0 C1.27746094 -0.01675781 2.55492187 -0.03351563 3.87109375 -0.05078125 C9.48450683 0.50164988 13.36867322 2.51149997 17 6.8125 C17.51433594 7.4003125 18.02867187 7.988125 18.55859375 8.59375 C18.88988281 9.1609375 19.22117188 9.728125 19.5625 10.3125 C18.31124616 14.06626152 16.9972596 14.55323289 13.5625 16.3125 C11.5625 16.3125 11.5625 16.3125 9.0625 13.875 C7.825 12.6065625 7.825 12.6065625 6.5625 11.3125 C2.86028834 9.46139417 -1.39656917 9.84795205 -5.4375 10.3125 C-9.08392615 12.43958192 -10.87668047 14.44438204 -12.4375 18.3125 C-13.06727827 23.57041623 -13.60327147 29.32745527 -10.625 33.9375 C-8.17015195 36.6027636 -6.55222382 38.19677295 -2.87890625 38.578125 C-1.92886719 38.57296875 -0.97882813 38.5678125 0 38.5625 C0.94746094 38.56765625 1.89492187 38.5728125 2.87109375 38.578125 C5.6509577 38.30376978 7.29051334 37.93161693 9.5625 36.3125 C10.38120185 32.75043339 10.38120185 32.75043339 10.5625 29.3125 C6.9325 29.3125 3.3025 29.3125 -0.4375 29.3125 C-0.4375 26.6725 -0.4375 24.0325 -0.4375 21.3125 C6.4925 21.3125 13.4225 21.3125 20.5625 21.3125 C20.68625 24.344375 20.81 27.37625 20.9375 30.5 C20.99212402 31.44641357 21.04674805 32.39282715 21.10302734 33.36791992 C21.22288991 39.43902326 21.22288991 39.43902326 19.3034668 41.9777832 C11.98500749 48.15693641 5.50837993 48.87741728 -3.8359375 48.65625 C-11.33050284 47.94093357 -15.48677975 44.87886991 -20.2109375 39.19140625 C-24.74294759 32.24905958 -24.06753058 24.26364545 -23.4375 16.3125 C-21.88285594 10.08461451 -17.73865971 5.77313233 -12.4375 2.3125 C-8.26261403 0.19616507 -4.65110868 0.01405169 0 0 Z " fill="#F6F6F5" transform="translate(175.4375,342.6875)"/>
<path d="M0 0 C3.3 0 6.6 0 10 0 C10 15.84 10 31.68 10 48 C6.7 48 3.4 48 0 48 C0 41.07 0 34.14 0 27 C-6.6 27 -13.2 27 -20 27 C-20 33.6 -20 40.2 -20 47 C-22.97 47 -25.94 47 -29 47 C-29 31.82 -29 16.64 -29 1 C-26.03 1 -23.06 1 -20 1 C-20 6.61 -20 12.22 -20 18 C-13.4 18 -6.8 18 0 18 C0 12.06 0 6.12 0 0 Z " fill="#F9F9F8" transform="translate(277,343)"/>
<path d="M0 0 C3.3 0 6.6 0 10 0 C10.01458252 0.71655762 10.02916504 1.43311523 10.04418945 2.17138672 C10.11849 5.40647983 10.21520861 8.64052019 10.3125 11.875 C10.33505859 13.00292969 10.35761719 14.13085938 10.38085938 15.29296875 C10.41630859 16.36933594 10.45175781 17.44570313 10.48828125 18.5546875 C10.51446533 19.54968262 10.54064941 20.54467773 10.56762695 21.56982422 C10.78165161 22.77276123 10.78165161 22.77276123 11 24 C13.82462068 26.30787112 13.82462068 26.30787112 17.0625 25.875 C20.05163023 25.32597629 20.05163023 25.32597629 21.15771484 23.25683594 C22.09914728 20.73434278 22.31572908 18.7034051 22.4140625 16.015625 C22.45273437 15.08105469 22.49140625 14.14648438 22.53125 13.18359375 C22.5621875 12.21550781 22.593125 11.24742187 22.625 10.25 C22.66367187 9.26644531 22.70234375 8.28289062 22.7421875 7.26953125 C22.8362797 4.84665711 22.91922152 2.42335455 23 0 C25.97 0 28.94 0 32 0 C32 11.22 32 22.44 32 34 C29.36 34 26.72 34 24 34 C24 32.68 24 31.36 24 30 C23.34 30 22.68 30 22 30 C21.67 30.99 21.34 31.98 21 33 C16.70950739 35.84758753 11.95723847 35.65078819 7 35 C2.84575388 32.66323656 1.43962625 30.44842133 0 26 C-0.22705078 23.0456543 -0.22705078 23.0456543 -0.1953125 19.82421875 C-0.18886719 18.66728516 -0.18242187 17.51035156 -0.17578125 16.31835938 C-0.15902344 15.12017578 -0.14226562 13.92199219 -0.125 12.6875 C-0.11597656 11.46998047 -0.10695313 10.25246094 -0.09765625 8.99804688 C-0.07413037 5.99849726 -0.04125653 2.99934956 0 0 Z " fill="#F8F8F7" transform="translate(295,356)"/>
<path d="M0 0 C0 3.3 0 6.6 0 10 C2.64 10 5.28 10 8 10 C8 12.64 8 15.28 8 18 C5.69 18 3.38 18 1 18 C1.33 23.94 1.66 29.88 2 36 C3.65 36.33 5.3 36.66 7 37 C7.38063221 39.3260857 7.71269945 41.66055264 8 44 C6.35962605 45.64037395 4.50523159 45.24911331 2.25 45.3125 C-1.48290476 45.28579825 -2.7881884 45.12968057 -6.0625 43.125 C-8.91284731 39.99881263 -9.12255022 38.34333589 -9.09765625 34.2109375 C-9.09282227 32.79941406 -9.09282227 32.79941406 -9.08789062 31.359375 C-9.07951172 30.37453125 -9.07113281 29.3896875 -9.0625 28.375 C-9.05798828 27.38242187 -9.05347656 26.38984375 -9.04882812 25.3671875 C-9.03702145 22.9113984 -9.020554 20.45572896 -9 18 C-10.65 18 -12.3 18 -14 18 C-14 15.36 -14 12.72 -14 10 C-12.35 10 -10.7 10 -9 10 C-9 7.03 -9 4.06 -9 1 C-1.125 0 -1.125 0 0 0 Z " fill="#F6F6F5" transform="translate(233,346)"/>
<path d="M0 0 C3.68623011 1.61272567 4.75355 2.630325 7 6 C7.53110151 10.0970688 7.385629 12.30290142 5.375 15.9375 C-0.105592 19.28675066 -5.76411861 19.04923541 -12 18 C-15.02226091 16.29049721 -15.42537243 15.27038034 -17 12 C-17.625 8.9375 -17.625 8.9375 -17 6 C-11.7826716 -0.17841521 -7.77688511 -0.6980826 0 0 Z " fill="#7C7C7C" transform="translate(489,478)"/>
<path d="M0 0 C2.97 0 5.94 0 9 0 C9 11.22 9 22.44 9 34 C6.03 34 3.06 34 0 34 C0 22.78 0 11.56 0 0 Z " fill="#FDFDFC" transform="translate(204,356)"/>
<path d="M0 0 C3.1850357 1.76015131 3.83296972 2.49890916 5 6 C5.27119378 9.66111605 5.20982273 12.39675964 4 15.875 C1.44892219 18.58552017 -0.34302381 18.97503911 -3.99609375 19.18359375 C-6 19 -6 19 -8.9375 17.625 C-11.83081332 13.94260123 -12.30544076 10.63114231 -12 6 C-9.31355186 -0.1404529 -6.45424067 -0.44512005 0 0 Z " fill="#151515" transform="translate(357,364)"/>
<path d="M0 0 C1.65 0.33 3.3 0.66 5 1 C5.78912962 3.56467127 5.97910876 5.34122355 5.8125 8.0625 C5.68294813 11.02954978 5.68294813 11.02954978 7.59765625 12.6484375 C10.6970531 14.39216321 13.08595273 14.43867329 16.625 14.5625 C22.79113186 14.79113186 22.79113186 14.79113186 25 17 C24.625 19.625 24.625 19.625 24 22 C21.45716766 22.10871967 18.91904912 22.18762401 16.375 22.25 C15.66214844 22.28351563 14.94929688 22.31703125 14.21484375 22.3515625 C8.98930521 22.44744394 6.16414297 21.41434937 2 18 C-1.78275081 13.71951882 -2.43097812 10.55363289 -2.3359375 5.05078125 C-2 3 -2 3 0 0 Z " fill="#F4F5F3" transform="translate(200,249)"/>
<path d="M0 0 C2.375 0.875 2.375 0.875 4.375 3.875 C4.0508631 7.19740324 3.76723697 8.48276303 1.375 10.875 C-1.47102594 11.23987512 -3.0114306 11.27699375 -5.4375 9.6875 C-7.06552002 7.20262734 -7.13475499 5.78788568 -6.625 2.875 C-4.39928105 0.40197895 -3.34204055 -0.15914479 0 0 Z " fill="#F2F2F1" transform="translate(209.625,341.125)"/>
<path d="M0 0 C2.29160319 -0.02692484 4.58329546 -0.04636124 6.875 -0.0625 C8.15117187 -0.07410156 9.42734375 -0.08570313 10.7421875 -0.09765625 C14 0 14 0 16 1 C15.67 3.31 15.34 5.62 15 8 C11.14974121 7.39644592 8.13898841 6.23227397 4.6875 4.4375 C3.80449219 3.98246094 2.92148438 3.52742188 2.01171875 3.05859375 C1.34785156 2.70925781 0.68398437 2.35992187 0 2 C0 1.34 0 0.68 0 0 Z " fill="#E2E2E2" transform="translate(212,297)"/>
<path d="M0 0 C0.33 0 0.66 0 1 0 C1.16798051 2.27073652 1.33434113 4.54159293 1.5 6.8125 C1.5928125 8.07707031 1.685625 9.34164063 1.78125 10.64453125 C1.91914781 12.75978517 2 14.88025592 2 17 C1.34 17.33 0.68 17.66 0 18 C0 12.06 0 6.12 0 0 Z " fill="#010101" transform="translate(345,342)"/>
</svg>
