<?xml version="1.0" encoding="UTF-8"?>
<svg version="1.1" xmlns="http://www.w3.org/2000/svg" width="512" height="512">
<path d="M0 0 C168.96 0 337.92 0 512 0 C512 168.96 512 337.92 512 512 C343.04 512 174.08 512 0 512 C0 343.04 0 174.08 0 0 Z " fill="#FEFEFE" transform="translate(0,0)"/>
<path d="M0 0 C1.20251442 -0.00551503 1.20251442 -0.00551503 2.42932206 -0.01114148 C5.11290683 -0.02214559 7.79645284 -0.02601658 10.48005676 -0.02983093 C12.40543235 -0.03609803 14.33080674 -0.04274505 16.25617981 -0.04974365 C22.57664655 -0.07075625 28.89711345 -0.08114307 35.21760559 -0.09111023 C37.39573491 -0.09515876 39.57386411 -0.09927571 41.75199318 -0.10346031 C51.98541124 -0.12250541 62.21882211 -0.13673817 72.45225447 -0.14507228 C84.25526477 -0.15484408 96.0580875 -0.18116507 107.86103171 -0.22157317 C116.99072654 -0.25175415 126.12036766 -0.26654302 135.2501114 -0.26985329 C140.69984758 -0.27220138 146.14938322 -0.28113083 151.59906578 -0.30631447 C156.72828895 -0.32963494 161.85718008 -0.33381236 166.98644257 -0.32355309 C168.86411202 -0.32305859 170.74179805 -0.32935335 172.61941719 -0.34310913 C193.11360999 -0.48479731 193.11360999 -0.48479731 201.38948059 6.04170227 C201.89608215 6.67463196 202.40268372 7.30756165 202.92463684 7.95967102 C203.44928528 8.58486633 203.97393372 9.21006165 204.51448059 9.85420227 C208.21293932 15.61281043 209.43132046 20.44441363 209.37481689 27.24868774 C209.3828952 28.42926413 209.3828952 28.42926413 209.39113671 29.63369054 C209.40537884 32.25594015 209.3983219 34.87768227 209.39118958 37.49995422 C209.39689519 39.38621932 209.40386019 41.27248096 209.4119873 43.15873718 C209.42991487 48.27251726 209.42875079 53.3861257 209.42304492 58.49992776 C209.4199518 62.77411353 209.42604706 67.04826639 209.43208367 71.32244748 C209.44612663 81.40980185 209.44457013 91.49707153 209.43318176 101.58442688 C209.42170686 111.97784862 209.43576626 122.37101212 209.46257824 132.76439983 C209.48476036 141.69882435 209.49136676 150.63316797 209.48550183 159.56761807 C209.48213634 164.898813 209.48452 170.2298425 209.50175285 175.56101418 C209.51725938 180.57703125 209.51322525 185.59266707 209.49444771 190.60866928 C209.49077177 192.44440197 209.49384112 194.28016314 209.5043335 196.11586952 C209.61827118 217.70691917 209.61827118 217.70691917 201.36213684 226.08467102 C192.41473682 234.03574484 179.03954473 232.58716706 167.92658997 232.5670929 C166.00047313 232.57444127 164.07436068 232.58302973 162.14825439 232.59275818 C156.93962425 232.61489804 151.73115265 232.61790877 146.52248192 232.61601067 C142.16612814 232.61589065 137.80980757 232.62446696 133.45346308 232.63278818 C123.17381207 232.65199387 112.89424227 232.65491586 102.61457825 232.64814758 C92.02507895 232.64150352 81.43592768 232.66439253 70.84649897 232.70146132 C61.73791582 232.73218426 52.62944451 232.74351568 43.5208106 232.7396245 C38.08789413 232.7375603 32.65524879 232.74298619 27.22238159 232.76751709 C22.11352159 232.78982543 17.0052271 232.78787225 11.89636421 232.76758957 C10.02676006 232.76418717 8.1571175 232.76923528 6.28756523 232.78357315 C-13.75489011 232.92662137 -13.75489011 232.92662137 -22.13567352 225.18668365 C-28.31326539 218.88203631 -30.47682443 211.81514249 -30.39381409 203.11521912 C-30.39849406 202.34773153 -30.40317403 201.58024395 -30.40799582 200.78949916 C-30.41988106 198.2394348 -30.4105142 195.68991434 -30.40104675 193.1398468 C-30.40511541 191.3026956 -30.41045893 189.46554685 -30.41697693 187.62840271 C-30.43062329 182.65309574 -30.42536241 177.67797594 -30.41583967 172.70266581 C-30.40822691 167.48631708 -30.41529339 162.26998402 -30.41999817 157.05363464 C-30.42545198 148.29262933 -30.41827494 139.53169995 -30.40397644 130.77070618 C-30.38766087 120.65734136 -30.39293204 110.5441581 -30.40945566 100.4307977 C-30.42309336 91.73414567 -30.42497871 83.03754813 -30.41713965 74.34088886 C-30.41247438 69.15282333 -30.41180648 63.96484297 -30.42174911 58.77678299 C-30.4304494 53.89622681 -30.4243411 49.01590335 -30.40706635 44.13537216 C-30.40311738 42.3496311 -30.40420813 40.56387027 -30.41085434 38.77813721 C-30.45386503 26.0423162 -30.31269984 15.59555912 -21.06755066 5.99482727 C-14.80496278 0.3632606 -8.06091385 -0.00199445 0 0 Z " fill="#0E72B6" transform="translate(166.0128631591797,139.8528289794922)"/>
<path d="M0 0 C1.24608032 0.0146228 1.24608032 0.0146228 2.51733398 0.02954102 C13.31444145 0.34031736 20.63614666 3.36892772 28.4609375 10.9453125 C38.33335269 22.31462819 37.91035297 36.19025683 37.8203125 50.37890625 C37.81657676 52.11482072 37.81373244 53.85073732 37.81173706 55.58665466 C37.80414474 60.1289362 37.78453463 64.6710874 37.7623291 69.21331787 C37.73815388 74.67751625 37.72906871 80.14175849 37.71742249 85.60599518 C37.69810722 93.88325377 37.65975412 102.16022704 37.625 110.4375 C26.405 110.4375 15.185 110.4375 3.625 110.4375 C3.59921875 105.77753906 3.5734375 101.11757813 3.546875 96.31640625 C3.52168368 93.34955575 3.49533347 90.38280489 3.46484375 87.41601562 C3.41664653 82.71557344 3.3725506 78.01536217 3.35400391 73.31469727 C3.33876688 69.52130762 3.30419881 65.72852549 3.25669098 61.93540764 C3.24194923 60.49432621 3.23396315 59.053158 3.23311615 57.61200142 C3.22214883 48.30117886 3.04578815 39.85828815 -3.875 32.9375 C-8.66925041 30.06094975 -13.88921869 29.74225341 -19.375 30.4375 C-24.68790344 33.19233882 -27.56549611 35.98313323 -29.43319702 41.64588928 C-30.35219129 45.34567426 -30.65007064 48.48946719 -30.69384766 52.29077148 C-30.70891609 53.25790825 -30.70891609 53.25790825 -30.72428894 54.24458313 C-30.75487148 56.34924528 -30.77208546 58.45378177 -30.7890625 60.55859375 C-30.80779431 62.02833621 -30.8273692 63.49806815 -30.8477478 64.9677887 C-30.89886263 68.8162106 -30.93859812 72.66466728 -30.97589111 76.51324463 C-31.02313681 81.14152903 -31.08464533 85.76964361 -31.14373779 90.397789 C-31.23169809 97.41095667 -31.30164207 104.42409596 -31.375 111.4375 C-42.925 111.4375 -54.475 111.4375 -66.375 111.4375 C-66.375 75.7975 -66.375 40.1575 -66.375 3.4375 C-55.485 3.4375 -44.595 3.4375 -33.375 3.4375 C-32.88 9.3775 -32.88 9.3775 -32.375 15.4375 C-31.694375 14.4165625 -31.694375 14.4165625 -31 13.375 C-22.6295482 4.00806584 -12.39360777 -0.16355759 0 0 Z " fill="#FBFDFD" transform="translate(301.375,226.5625)"/>
<path d="M0 0 C11.88 0 23.76 0 36 0 C36 35.64 36 71.28 36 108 C24.12 108 12.24 108 0 108 C0 72.36 0 36.72 0 0 Z " fill="#F8FBFB" transform="translate(176,230)"/>
<path d="M0 0 C4.56538029 2.94346887 8.06493281 7.29779485 10.078125 12.33984375 C10.974626 19.47410437 10.98117583 25.79675616 6.56640625 31.69140625 C1.48413124 37.32059274 -3.16749683 40.04187723 -10.859375 40.65234375 C-18.31417308 40.41140921 -23.912722 36.56903706 -28.921875 31.33984375 C-33.10648052 25.80536548 -32.7664347 18.97450985 -31.921875 12.33984375 C-29.6684742 5.90304608 -24.63040803 1.79123715 -18.921875 -1.66015625 C-12.28688743 -3.87181877 -6.22803594 -3.0595771 0 0 Z " fill="#F9FCFD" transform="translate(205.921875,174.66015625)"/>
<path d="M0 0 C0.66 0.33 1.32 0.66 2 1 C0.37744772 2.48185125 -1.24811888 3.96040256 -2.875 5.4375 C-3.77992188 6.26121094 -4.68484375 7.08492187 -5.6171875 7.93359375 C-8 10 -8 10 -10 11 C-9.43997584 7.46340908 -8.32225676 6.04440308 -5.5625 3.8125 C-4.94503906 3.30332031 -4.32757813 2.79414063 -3.69140625 2.26953125 C-2 1 -2 1 0 0 Z " fill="#0B67A3" transform="translate(151,142)"/>
<path d="M0 0 C-1.66751148 3.94139078 -4.22710649 6.7892812 -7 10 C-7.33 9.01 -7.66 8.02 -8 7 C-6.85546875 5.17578125 -6.85546875 5.17578125 -5.1875 3.3125 C-4.37345703 2.37857422 -4.37345703 2.37857422 -3.54296875 1.42578125 C-2 0 -2 0 0 0 Z " fill="#136CA6" transform="translate(280,258)"/>
</svg>
